<svg width="42" height="35" viewBox="0 0 42 35" fill="none" xmlns="http://www.w3.org/2000/svg">
<path d="M18.6726 15.9517C18.4844 16.0792 18.2959 16.2069 18.1153 16.3424C18.2206 16.581 18.3258 16.8197 18.4612 17.0285C18.7519 17.0483 19.0426 17.0699 19.3334 17.0914C19.9148 17.1345 20.4963 17.1776 21.0777 17.2074C21.9821 17.2475 22.8856 17.2868 23.7887 17.326C26.5794 17.4471 29.3656 17.568 32.1605 17.7145C32.8372 17.7444 33.5741 17.8189 34.1756 18.1023C34.5515 18.2813 34.8673 18.8629 34.9275 19.2954C35.0026 19.9069 34.6117 20.5035 33.9801 20.6228C33.0177 20.8017 32.0101 20.8912 31.0176 20.8763C28.7785 20.8507 26.5443 20.8055 24.3122 20.7603C22.6468 20.7267 20.9826 20.693 19.3183 20.6675C19.2077 20.6675 19.0928 20.6569 18.9761 20.6462C18.5216 20.6044 18.0413 20.5602 17.6942 21.1298C17.713 21.1723 17.7317 21.2152 17.7506 21.2585C17.8379 21.4586 17.9288 21.6671 18.0401 21.8755C18.0963 21.987 18.168 22.0933 18.2392 22.1987C18.3394 22.3473 18.4385 22.4941 18.4912 22.6511C18.6567 23.1134 18.807 23.5907 18.8672 24.0679C18.9574 24.8136 18.1303 25.4102 17.4837 25.0821C17.1379 24.9031 16.777 24.6943 16.4912 24.4408C14.2356 22.4423 11.7694 20.7868 8.98743 19.5937C8.02501 19.191 7.09267 18.6392 7.12275 17.5057C7.15283 16.1933 8.23554 15.716 9.34833 15.4625C11.7995 14.9107 14.1002 13.9562 16.3559 12.8973C16.8973 12.6437 17.4687 12.4498 18.0552 12.3305C18.7619 12.1814 19.4537 12.2858 19.9499 12.8973C20.401 13.4789 20.386 14.4334 19.7694 15.0896C19.4546 15.4221 19.0642 15.6865 18.6726 15.9517Z" fill="#00CF83"/>
<path fill-rule="evenodd" clip-rule="evenodd" d="M25.0094 34.8583C24.4882 34.9078 24.0087 34.9533 23.589 35C17.0777 34.8509 11.5739 33.5086 6.25056 31.3162C5.93579 31.1913 5.64211 31.0247 5.35186 30.8599C5.29546 30.8279 5.23917 30.796 5.18289 30.7644C2.98739 29.5414 1.51369 27.7667 0.746773 25.3655C-0.2006 22.4274 -0.290833 19.5341 0.731731 16.596C1.57384 14.2396 2.70168 12.0323 4.23552 10.0487C4.80025 9.31575 5.37791 8.59241 5.95502 7.86977C6.62265 7.03376 7.28954 6.1987 7.93479 5.35076C9.18291 3.7102 10.792 2.59165 12.7017 1.86085C14.9424 0.995834 17.2582 0.35452 19.6642 0.100978C20.7469 -0.0183326 21.8747 -0.0481627 22.9574 0.100978C23.9445 0.239424 24.9118 0.469662 25.8811 0.700392C26.3738 0.817655 26.8669 0.935045 27.3635 1.04057C30.2056 1.63714 32.5966 3.00925 34.4914 5.18671C35.7394 6.6035 36.9123 8.09485 38.0852 9.5862L38.0854 9.58637C39.7094 11.6445 40.732 14.0158 41.4839 16.5065C42.4162 19.6236 42.0854 22.5766 40.4914 25.4251C39.2583 27.6324 37.7245 29.5713 35.8447 31.2417C33.9951 32.8822 31.8598 33.9262 29.4387 34.3289C27.89 34.5849 26.3182 34.7341 25.0094 34.8583ZM19.9357 3.26057L19.7243 3.2926C19.6762 3.52457 19.632 3.73703 19.5901 3.93837C19.4487 4.61729 19.3338 5.16979 19.183 5.91748C19.0073 5.74944 18.842 5.59115 18.684 5.43974C18.0846 4.86551 17.5888 4.39044 17.0176 3.85935C14.1454 4.30677 11.619 5.47007 9.85961 8.0353C9.30681 8.83941 8.69193 9.59872 8.07719 10.3578C7.68857 10.8377 7.30002 11.3176 6.92726 11.8086C5.33327 13.8816 4.22048 16.1933 3.55882 18.7287C2.9122 21.1895 3.52875 23.4565 4.61146 25.6339C5.31823 27.0508 6.65659 27.8561 8.07013 28.3483C10.6115 29.2432 13.1679 30.1231 15.7845 30.7346C20.1153 31.7487 24.4913 31.8382 28.8973 31.0776C31.0477 30.7047 32.9124 29.8099 34.4162 28.2886C39.8749 22.7704 40.3561 19.0419 36.8523 12.5543C35.6342 10.3022 33.9199 8.28883 32.2207 6.35C30.6868 4.60504 28.762 3.48649 26.2357 3.41192C25.7476 3.39901 25.2596 3.26323 24.7643 3.12542C24.1149 2.94475 23.4529 2.76058 22.762 2.84518C21.8485 2.97063 20.9351 3.10908 19.9357 3.26057Z" fill="#00CF83"/>
</svg>
