<svg width="41" height="34" viewBox="0 0 41 34" fill="none" xmlns="http://www.w3.org/2000/svg">
<path d="M40.9887 0.81438C40.8872 1.64384 40.1317 2.12847 39.5114 2.67834C34.7639 6.88156 30.1742 11.2153 25.1785 15.2041C22.754 17.1426 22.8103 18.4195 24.8627 20.3859C27.806 23.2005 30.1291 26.4158 32.2266 29.715C32.6326 30.3488 33.4558 31.1037 32.6325 31.7841C31.6515 32.6042 30.7042 31.8213 29.9148 31.374C26.3062 29.2864 22.8329 27.0589 19.9235 24.3003C17.3298 21.8398 17.2847 21.7932 14.3189 24.0766C10.7328 26.8446 7.27075 29.7244 3.70725 32.511C2.82765 33.2006 1.94804 34.6732 0.527153 33.648C-0.668199 32.7813 0.448259 31.5884 1.13615 30.675C4.03432 26.8539 7.57522 23.4522 11.5221 20.3767C13.3603 18.9507 13.3941 17.9348 11.7703 16.425C9.52616 14.3467 7.43995 12.1379 6.07544 9.54701C5.12818 7.75762 4.8688 5.93096 7.2595 4.90578C9.62766 3.88992 10.8568 5.31588 12.1086 6.85364C13.8001 8.95991 15.8863 10.8425 17.7357 12.8649C18.9536 14.1976 19.9122 13.5266 21.0173 12.753C26.3964 8.97851 31.8093 5.232 37.2223 1.49476C37.9214 1.01013 38.6995 0.58141 39.4889 0.199299C40.2783 -0.182813 40.8534 -0.0336732 41 0.805108L40.9887 0.81438Z" fill="#CE3194"/>
</svg>
