<svg width="41" height="34" viewBox="0 0 41 34" fill="none" xmlns="http://www.w3.org/2000/svg">
<path d="M22.772 15.496C22.9557 15.6198 23.1397 15.7438 23.316 15.8755C23.2133 16.1073 23.1105 16.3391 22.9784 16.5419C22.6946 16.5613 22.4108 16.5822 22.1269 16.6031C21.5593 16.645 20.9917 16.6868 20.4241 16.7158C19.5413 16.7548 18.6593 16.7929 17.7777 16.8309C15.0535 16.9486 12.3335 17.0661 9.60522 17.2084C8.94463 17.2374 8.22532 17.3098 7.63814 17.5851C7.27115 17.7589 6.96288 18.324 6.90416 18.7441C6.83076 19.3381 7.21243 19.9177 7.82898 20.0336C8.76847 20.2074 9.75201 20.2943 10.7209 20.2798C12.9067 20.2549 15.0877 20.2111 17.2666 20.1672C18.8924 20.1345 20.517 20.1018 22.1416 20.077C22.2496 20.077 22.3618 20.0667 22.4757 20.0563C22.9194 20.0157 23.3883 19.9727 23.727 20.5261C23.7088 20.5673 23.6905 20.609 23.6721 20.6511C23.5868 20.8455 23.498 21.048 23.3894 21.2505C23.3346 21.3588 23.2645 21.462 23.1951 21.5645C23.0972 21.7088 23.0005 21.8514 22.949 22.0039C22.7875 22.4531 22.6407 22.9167 22.582 23.3803C22.4939 24.1047 23.3013 24.6842 23.9326 24.3654C24.2702 24.1916 24.6225 23.9888 24.9014 23.7425C27.1034 21.8011 29.5108 20.1929 32.2266 19.0339C33.1661 18.6427 34.0762 18.1067 34.0468 17.0056C34.0175 15.7306 32.9605 15.267 31.8743 15.0207C29.4815 14.4846 27.2355 13.5574 25.0335 12.5288C24.5051 12.2825 23.9472 12.0941 23.3747 11.9782C22.6848 11.8333 22.0095 11.9348 21.5251 12.5288C21.0847 13.0938 21.0994 14.021 21.7013 14.6585C22.0086 14.9814 22.3897 15.2383 22.772 15.496Z" fill="#00CF83"/>
<path fill-rule="evenodd" clip-rule="evenodd" d="M16.5861 33.8623C17.0948 33.9104 17.5629 33.9546 17.9726 34C24.3289 33.8551 29.7017 32.5512 34.8983 30.4215C35.2055 30.3002 35.4922 30.1382 35.7756 29.9782C35.8306 29.9471 35.8856 29.9161 35.9405 29.8854C38.0837 28.6974 39.5223 26.9733 40.271 24.6408C41.1958 21.7866 41.2839 18.976 40.2857 16.1218C39.4636 13.8327 38.3627 11.6885 36.8653 9.7616C36.314 9.04959 35.7501 8.34691 35.1868 7.64492C34.535 6.8328 33.884 6.02159 33.2541 5.19788C32.0357 3.6042 30.465 2.5176 28.6007 1.80768C26.4134 0.967382 24.1527 0.344391 21.804 0.0980933C20.7471 -0.0178089 19.6461 -0.0467866 18.5892 0.0980933C17.6256 0.232583 16.6813 0.456243 15.7351 0.680381C15.2542 0.794294 14.7728 0.90833 14.288 1.01084C11.5136 1.59036 9.1795 2.92327 7.32987 5.03851C6.1115 6.41483 4.96652 7.86357 3.82155 9.31231L3.82143 9.31247C2.23603 11.3118 1.23781 13.6154 0.503825 16.0349C-0.40631 19.0629 -0.0833607 21.9315 1.47268 24.6987C2.67642 26.8429 4.17374 28.7264 6.0087 30.349C7.8143 31.9427 9.8988 32.9569 12.2622 33.348C13.7741 33.5967 15.3084 33.7417 16.5861 33.8623ZM21.539 3.16741L21.7453 3.19853C21.7923 3.42387 21.8355 3.63026 21.8764 3.82584C22.0143 4.48537 22.1266 5.02208 22.2738 5.74841C22.4453 5.58517 22.6066 5.4314 22.7609 5.28432C23.346 4.7265 23.83 4.265 24.3876 3.74908C27.1914 4.18372 29.6576 5.31378 31.3751 7.80572C31.9148 8.58685 32.515 9.32447 33.1151 10.0619C33.4945 10.5281 33.8738 10.9942 34.2377 11.4712C35.7937 13.485 36.88 15.7306 37.5259 18.1936C38.1571 20.5841 37.5553 22.7863 36.4983 24.9016C35.8084 26.2779 34.5019 27.0603 33.122 27.5384C30.6412 28.4076 28.1456 29.2624 25.5914 29.8564C21.3636 30.8416 17.0918 30.9286 12.7907 30.1897C10.6915 29.8275 8.87123 28.9582 7.40327 27.4804C2.07455 22.1198 1.6048 18.4978 5.02516 12.1956C6.21421 10.0079 7.88769 8.05201 9.54649 6.16857C11.0438 4.47347 12.9228 3.38688 15.389 3.31444C15.8654 3.3019 16.3418 3.16999 16.8254 3.03612C17.4593 2.86061 18.1055 2.6817 18.78 2.76389C19.6717 2.88575 20.5634 3.02025 21.539 3.16741Z" fill="#00CF83"/>
</svg>
