<svg width="82" height="78" viewBox="0 0 82 78" fill="none" xmlns="http://www.w3.org/2000/svg">
<path d="M67.6217 49.5008C68.7606 46.262 69.8374 42.9743 71.1198 39.7452C71.676 38.2705 72.4008 36.7737 73.3805 35.5289C74.7119 33.8372 77.4416 33.5044 79.2345 34.5537C80.5108 35.2997 81.5859 37.6449 80.6947 38.6492C77.2114 42.6272 77.4313 47.659 76.2362 52.249C75.2253 56.157 74.8568 60.2086 73.8459 64.1166C73.1209 66.9574 72.2332 69.877 70.7917 72.4124C67.355 78.4428 60.4521 79.471 56.0744 74.4751C50.008 67.5297 44.28 60.2821 39.7925 52.0984C38.9385 50.4959 38.2102 48.7338 37.9064 46.9441C37.4448 44.2032 40.8838 41.6894 43.2808 43.059C45.2854 44.2232 47.0318 45.9076 48.7972 47.5038C51.5075 49.947 54.0922 52.5499 56.976 55.2847C57.7236 54.2708 58.4879 53.6835 58.4844 53.1121C58.1367 43.3796 56.3143 33.9854 52.0038 25.3207C48.4109 18.0479 43.3384 12.1431 35.5876 8.93753C24.6779 4.43463 13.092 6.99784 4.98423 16.0198C4.09307 17.0242 3.35144 18.0944 2.74856 18.8605C0.375427 19.0603 -0.161538 17.7589 0.0382753 16.4172C0.48935 13.4125 1.96184 10.9017 4.21306 8.74518C14.816 -1.20756 30.5489 -2.83299 42.724 4.73331C49.8072 9.17093 55.2542 15.1119 58.9391 22.7156C61.9686 28.9766 63.8665 35.5874 65.1892 42.4174C65.6651 44.7562 66.0286 47.1099 66.4483 49.456C66.7916 49.4678 67.1911 49.472 67.6217 49.5008Z" fill="#00A0FF"/>
</svg>
