<svg width="69" height="118" viewBox="0 0 69 118" fill="none" xmlns="http://www.w3.org/2000/svg">
<path d="M39.8391 101.678C43.9094 99.5616 45.5987 96.566 46.0681 93.4453C46.4837 90.6769 46.4927 87.8667 46.0752 85.3414C45.218 80.1909 43.6028 75.3823 40.906 70.7719C39.4801 71.504 38.0542 72.2361 36.6283 72.9683C32.6634 75.0828 28.7653 77.497 24.764 79.2109C17.6742 82.2183 11.5178 81.8694 6.41331 78.8143C1.19984 75.6862 0.51126 69.6291 4.85173 63.1413C12.0378 52.4296 22.2197 48.2038 31.4146 49.9446C34.1132 50.4656 36.5236 51.5948 38.8473 52.7508C40.7914 53.6888 42.3687 55.0611 44.5108 56.4717C45.5992 55.295 46.9395 54.2384 47.5686 53.0211C49.0388 50.2308 50.7843 47.3094 51.2901 44.5893C54.1449 29.3011 50.5379 17.2832 38.4235 9.93297C35.7247 8.283 32.7238 6.94045 28.7118 7.29977C28.0111 7.36451 27.261 6.37646 27.1391 5.65142C26.9585 4.42582 28.1265 3.07187 29.3966 2.76951C31.6428 2.27125 34.0507 1.84494 36.0837 2.0536C44.4828 2.95792 50.526 6.89669 54.5704 12.8591C58.6899 18.9202 60.6629 26.1049 60.7764 34.156C60.8923 42.6336 58.2745 50.9672 51.7291 59.2068C50.882 60.2782 50.0913 61.4237 48.8998 63.029C52.081 71.5935 56.3965 79.9588 55.641 91.2393C58.0827 89.6582 59.8377 88.4424 61.6339 87.3514C63.2414 86.3646 64.6838 86.3598 65.8791 87.0876C67.0029 87.7919 66.9961 89.8995 65.7332 91.4812C64.5194 92.9866 63.2529 94.4932 61.7838 95.8032C55.4875 101.479 49.1199 107.13 42.7522 112.782C42.1101 113.348 41.4494 113.888 40.7323 114.355C38.0528 116.116 35.2922 116.149 34.2784 114.037C31.3306 107.826 28.6056 101.485 25.8125 95.1958C25.5581 94.6491 25.2593 93.9027 25.4947 93.2956C25.9351 92.1826 26.5266 90.9158 27.4745 90.1184C28.0485 89.6046 29.6609 89.4708 30.2585 89.8347C31.7397 90.657 33.1073 91.6823 34.0823 92.9667C35.4511 94.7697 36.4122 96.8823 37.6112 98.8143C38.271 99.7539 39.0703 100.666 39.8391 101.678ZM36.4069 64.4928C33.7769 60.182 30.6352 58.0896 26.4942 57.5735C20.885 56.8872 15.049 59.994 11.5403 65.461C9.71982 68.2837 9.88184 70.6136 12.0462 72.1241C15.0298 74.2198 18.818 74.3417 23.1919 72.6953C27.8786 70.9672 32.1165 68.2951 36.4069 64.4928Z" stroke="#5B585B" stroke-width="4" stroke-linejoin="round"/>
</svg>
