<svg width="40" height="47" viewBox="0 0 40 47" fill="none" xmlns="http://www.w3.org/2000/svg">
<path d="M31.7661 20.3663C30.8378 19.8942 30.2126 19.5166 29.5306 19.2334C26.7646 18.0061 23.9986 16.7977 21.2137 15.6081C14.2231 12.6438 7.87654 8.50878 1.51105 4.43041C1.18899 4.22272 0.885869 3.99615 0.639586 3.73182C-0.023486 3.01433 -0.175046 2.18357 0.203852 1.29615C0.601695 0.389842 1.7005 -0.176616 2.70458 0.0499602C3.31082 0.182129 3.91705 0.408687 4.4854 0.691906C5.60315 1.25835 6.7209 1.84368 7.78181 2.54228C14.6399 7.0738 22.0473 10.548 29.6253 13.7012C32.1828 14.7585 34.7215 15.8914 37.2601 16.9865C38.5673 17.5529 39.8555 18.2516 39.9881 19.8376C40.1397 21.6124 38.8136 22.5187 37.4495 23.2551C29.7958 27.4467 22.862 32.6958 16.0607 38.1147C14.3936 39.4364 12.5938 40.6259 10.8698 41.9098C10.1878 42.4385 9.33529 42.9294 8.9564 43.6469C7.6492 46.1203 5.2053 46.4036 2.93192 46.9511C2.06045 47.1588 1.18899 46.6868 0.677475 45.8749C0.165962 45.063 0.147018 44.1756 0.677475 43.3826C1.09426 42.7595 1.60577 42.193 2.17412 41.721C3.04559 41.0035 4.03072 40.4182 4.95902 39.7574C8.72906 37.0196 12.5559 34.3573 16.2502 31.5062C20.7401 28.051 25.249 24.5957 30.1178 21.6691C30.6294 21.3292 31.0651 20.9138 31.7661 20.3663Z" fill="white"/>
</svg>
