<svg width="40" height="47" viewBox="0 0 40 47" fill="none" xmlns="http://www.w3.org/2000/svg">
<path d="M8.23394 20.3663C9.16224 19.8942 9.78743 19.5166 10.4694 19.2334C13.2354 18.0061 16.0014 16.7977 18.7863 15.6081C25.7769 12.6438 32.1235 8.50878 38.489 4.43041C38.811 4.22272 39.1141 3.99615 39.3604 3.73182C40.0235 3.01433 40.175 2.18357 39.7961 1.29615C39.3983 0.389842 38.2995 -0.176616 37.2954 0.0499602C36.6892 0.182129 36.0829 0.408687 35.5146 0.691906C34.3969 1.25835 33.2791 1.84368 32.2182 2.54228C25.3601 7.0738 17.9527 10.548 10.3747 13.7012C7.81716 14.7585 5.27854 15.8914 2.73992 16.9865C1.43272 17.5529 0.14447 18.2516 0.0118561 19.8376C-0.139702 21.6124 1.18644 22.5187 2.55047 23.2551C10.2042 27.4467 17.138 32.6958 23.9393 38.1147C25.6064 39.4364 27.4062 40.6259 29.1302 41.9098C29.8122 42.4385 30.6647 42.9294 31.0436 43.6469C32.3508 46.1203 34.7947 46.4036 37.0681 46.9511C37.9395 47.1588 38.811 46.6868 39.3225 45.8749C39.834 45.063 39.853 44.1756 39.3225 43.3826C38.9057 42.7595 38.3942 42.193 37.8259 41.721C36.9544 41.0035 35.9693 40.4182 35.041 39.7574C31.2709 37.0196 27.4441 34.3573 23.7498 31.5062C19.2599 28.051 14.751 24.5957 9.88215 21.6691C9.37064 21.3292 8.9349 20.9138 8.23394 20.3663Z" fill="white"/>
</svg>
