<svg width="86" height="35" viewBox="0 0 86 35" fill="none" xmlns="http://www.w3.org/2000/svg">
<path d="M23.5343 33.7354C19.7583 32.8973 15.9857 32.1198 12.3212 30.9472C9.22802 29.9562 6.21937 28.7995 3.65694 26.8176C-0.50109 23.6024 -1.17381 19.0044 1.94978 14.8524C3.95104 12.1886 6.70278 10.35 9.69453 8.8173C16.1784 5.49064 23.176 3.55965 30.3664 2.1831C36.7555 0.9595 43.2055 0.28079 49.7266 0.0672977C57.2786 -0.178059 64.7597 0.210684 72.1292 1.84533C76.0066 2.70568 79.759 3.89741 82.9232 6.29681C86.564 9.05947 86.9933 12.5646 84.1064 16.0219C81.9935 18.5519 79.1809 20.279 76.2264 21.7862C67.8326 26.072 58.8776 28.9844 49.6792 31.2722C45.2812 32.3652 40.8054 33.0949 36.3093 33.7099C36.0422 33.7449 35.7617 33.7386 35.5081 33.9138C37.7764 34.1018 40.0245 34.2898 42.2691 34.481C42.4923 34.5001 42.8607 34.395 42.8675 34.704C42.8742 35.0259 42.499 34.9239 42.2827 34.9367C38.3511 35.1183 34.4365 34.8921 30.532 34.4778C29.9742 34.4173 29.4367 34.4842 28.8857 34.5224C25.7013 34.7391 22.5168 34.9144 19.3256 34.9335C19.0349 34.9335 18.5346 35.1055 18.5312 34.6212C18.5312 34.2388 18.9842 34.3344 19.2715 34.2962C20.6947 34.105 22.1179 33.917 23.5445 33.7258L23.5343 33.7354ZM52.8772 1.1953C51.0585 1.27177 49.189 1.2654 47.3162 1.35462C42.3739 1.5936 37.4722 2.11938 32.6144 2.98609C25.0083 4.34033 17.6151 6.30637 10.7662 9.80828C7.82849 11.3123 5.10718 13.0903 3.11606 15.6841C0.536728 19.0426 0.88154 22.4904 4.0457 25.3454C5.43847 26.6041 7.09154 27.4931 8.82574 28.2483C13.7106 30.3705 18.8726 31.6323 24.1361 32.5659C26.0021 32.8973 27.8648 33.3243 29.7917 33.0662C31.2791 32.8655 32.7665 32.6456 34.2573 32.4608C45.6125 31.046 56.5856 28.2674 67.1936 24.2238C71.781 22.4744 76.3008 20.5785 80.2796 17.733C81.6825 16.7293 82.9435 15.5885 83.8393 14.1355C85.0428 12.1822 84.8974 10.3436 83.4235 8.56239C82.7541 7.75303 81.9192 7.11892 81.02 6.55491C78.7178 5.10826 76.1689 4.20012 73.5254 3.50547C66.788 1.73062 59.8884 1.24309 52.8772 1.1953Z" fill="#00A0FF"/>
</svg>
