<svg width="114" height="4" viewBox="0 0 114 4" fill="none" xmlns="http://www.w3.org/2000/svg">
<path d="M20.5307 0.202071C16.0712 0.315721 11.5755 0.409011 7.11712 0.554567C5.5248 0.605792 3.79344 0.735069 2.34884 0.963492C-0.540365 1.42034 -0.818778 2.60903 1.81728 3.04216C3.17089 3.26314 4.8051 3.40244 6.4014 3.46821C12.255 3.72354 18.1667 3.60482 23.8829 2.94819C26.6703 2.62167 29.3934 2.48841 32.2277 2.50134C44.4498 2.5305 56.6362 2.54992 68.859 2.60035C80.8337 2.64645 92.7745 2.73601 104.749 2.78212C106.591 2.78839 108.502 2.72906 110.376 2.61744C111.931 2.52457 112.804 2.15102 113.001 1.67764C113.197 1.20426 112.582 0.815441 111.23 0.658275C109.986 0.509038 108.566 0.428145 107.184 0.410144C102.966 0.347309 98.7493 0.305725 94.5333 0.285433C73.8779 0.183783 53.2575 0.070595 32.6032 0.000852509C28.6353 -0.0151184 24.6037 0.183434 20.6043 0.285357C20.5328 0.26589 20.5317 0.233978 20.5307 0.202071Z" fill="#00CF83"/>
</svg>
