<svg width="173" height="5" viewBox="0 0 173 5" fill="none" xmlns="http://www.w3.org/2000/svg">
<path d="M31.3027 0.835813C24.5082 1.00897 17.659 1.16119 10.8657 1.36783C8.43946 1.44083 5.8002 1.59744 3.59612 1.85465C-0.81203 2.36908 -1.25525 3.62017 2.75298 4.04297C4.81122 4.25857 7.29819 4.38505 9.72858 4.43481C18.6405 4.63212 27.647 4.4361 36.3646 3.67782C40.6155 3.30142 44.7654 3.12865 49.0824 3.10799C67.6985 2.99097 86.2603 2.86417 104.877 2.76947C123.116 2.67324 141.303 2.62302 159.542 2.52679C162.348 2.51112 165.259 2.42576 168.115 2.28597C170.486 2.1697 171.821 1.76706 172.128 1.2678C172.435 0.768538 171.504 0.367839 169.448 0.21919C167.554 0.0775781 165.393 0.00981578 163.288 0.00761416C156.865 -0.00740143 150.443 -0.00011963 144.021 0.0295027C112.561 0.172283 81.1539 0.302529 49.6947 0.478788C43.651 0.50995 37.507 0.767055 31.4136 0.922346C31.3049 0.902776 31.3038 0.869292 31.3027 0.835813Z" fill="#00CF83"/>
</svg>
