<svg width="196" height="36" viewBox="0 0 196 36" fill="none" xmlns="http://www.w3.org/2000/svg">
<path d="M53.6364 34.6992C45.0306 33.8373 36.4324 33.0376 28.0809 31.8314C21.0313 30.8121 14.1744 29.6224 8.33442 27.5838C-1.14202 24.2768 -2.6752 19.5474 4.44369 15.2768C9.00471 12.5368 15.2761 10.6457 22.0945 9.06922C36.8716 5.64752 52.8197 3.66135 69.2071 2.24547C83.7684 0.986914 98.4685 0.288813 113.33 0.0692205C130.542 -0.183147 147.592 0.216703 164.387 1.89806C173.224 2.78298 181.776 4.00877 188.988 6.47672C197.285 9.31831 198.264 12.9236 191.684 16.4796C186.869 19.082 180.459 20.8584 173.725 22.4086C154.595 26.8169 134.186 29.8125 113.222 32.1657C103.199 33.2899 92.9983 34.0405 82.7514 34.673C82.1428 34.7091 81.5033 34.7025 80.9255 34.8828C86.0952 35.0762 91.2186 35.2695 96.3343 35.4662C96.8428 35.4858 97.6826 35.3777 97.698 35.6956C97.7134 36.0266 96.8582 35.9217 96.3651 35.9349C87.4049 36.1217 78.4832 35.889 69.5846 35.4629C68.3133 35.4006 67.0883 35.4695 65.8325 35.5088C58.575 35.7317 51.3174 35.9119 44.0444 35.9316C43.3818 35.9316 42.2416 36.1086 42.2339 35.6104C42.2339 35.2171 43.2663 35.3154 43.9211 35.2761C47.1647 35.0794 50.4083 34.8861 53.6595 34.6894L53.6364 34.6992ZM120.511 1.22945C116.366 1.30811 112.105 1.30155 107.837 1.39332C96.5732 1.63913 85.4018 2.17993 74.3305 3.07141C56.9956 4.46434 40.146 6.48655 24.5368 10.0885C17.8417 11.6355 11.6396 13.4643 7.10171 16.1322C1.22324 19.5867 2.00909 23.133 9.22043 26.0696C12.3947 27.3642 16.1621 28.2786 20.1145 29.0554C31.2474 31.2382 43.012 32.5361 55.0078 33.4964C59.2606 33.8373 63.5058 34.2764 67.8973 34.011C71.2872 33.8045 74.6772 33.5783 78.0748 33.3882C103.954 31.933 128.963 29.0751 153.139 24.9159C163.594 23.1166 173.895 21.1665 182.963 18.2397C186.16 17.2072 189.034 16.0339 191.076 14.5394C193.818 12.5303 193.487 10.6391 190.128 8.80702C188.602 7.97454 186.7 7.32231 184.65 6.7422C179.403 5.25421 173.594 4.32013 167.569 3.60563C152.214 1.78007 136.49 1.27861 120.511 1.22945Z" fill="#00A0FF"/>
</svg>
