<svg width="104" height="42" viewBox="0 0 104 42" fill="none" xmlns="http://www.w3.org/2000/svg">
<path d="M28.4601 40.4824C23.8938 39.4768 19.3315 38.5438 14.9 37.1367C11.1595 35.9475 7.5211 34.5595 4.42235 32.1811C-0.605969 28.3229 -1.41949 22.8053 2.35788 17.8229C4.77801 14.6263 8.10569 12.42 11.7236 10.5808C19.5645 6.58877 28.0268 4.27158 36.7221 2.61972C44.4485 1.1514 52.2486 0.336948 60.1344 0.0807573C69.2672 -0.213671 78.314 0.252821 87.226 2.2144C91.915 3.24681 96.4528 4.67689 100.279 7.55617C104.682 10.8714 105.201 15.0775 101.71 19.2262C99.155 22.2623 95.7537 24.3348 92.1807 26.1434C82.0301 31.2863 71.2008 34.7812 60.0772 37.5267C54.7586 38.8382 49.346 39.7139 43.9089 40.4519C43.586 40.4939 43.2467 40.4863 42.9401 40.6966C45.6831 40.9222 48.4017 41.1478 51.1162 41.3772C51.386 41.4001 51.8316 41.274 51.8398 41.6449C51.8479 42.0311 51.3942 41.9087 51.1325 41.924C46.3781 42.1419 41.6441 41.8705 36.9224 41.3734C36.2479 41.3007 35.5979 41.381 34.9315 41.4269C31.0806 41.6869 27.2296 41.8972 23.3705 41.9202C23.0189 41.9202 22.4139 42.1267 22.4098 41.5454C22.4098 41.0866 22.9576 41.2013 23.3051 41.1554C25.0262 40.926 26.7472 40.7004 28.4724 40.471L28.4601 40.4824ZM63.9445 1.43435C61.7451 1.52612 59.4844 1.51848 57.2197 1.62554C51.2429 1.91232 45.3152 2.54325 39.4407 3.58331C30.2425 5.2084 21.3019 7.56764 13.0195 11.7699C9.46701 13.5747 6.17612 15.7084 3.76826 18.8209C0.649066 22.8512 1.06605 26.9884 4.89247 30.4145C6.57675 31.9249 8.57581 32.9917 10.673 33.898C16.5802 36.4446 22.8227 37.9588 29.1878 39.0791C31.4444 39.4768 33.6969 39.9892 36.0271 39.6795C37.8259 39.4386 39.6246 39.1747 41.4275 38.9529C55.1593 37.2552 68.4291 33.9209 81.2574 29.0686C86.8049 26.9693 92.2707 24.6942 97.0823 21.2796C98.7789 20.0751 100.304 18.7062 101.387 16.9626C102.842 14.6186 102.667 12.4123 100.884 10.2749C100.075 9.30363 99.065 8.5427 97.9776 7.8659C95.1936 6.12992 92.1112 5.04015 88.9144 4.20657C80.7669 2.07674 72.4231 1.49171 63.9445 1.43435Z" fill="#00A0FF"/>
</svg>
