<svg width="249" height="6" viewBox="0 0 249 6" fill="none" xmlns="http://www.w3.org/2000/svg">
<path d="M45.2638 0.179424C35.4459 0.306316 25.5495 0.398219 15.7326 0.57913C12.2265 0.642455 8.4108 0.835842 5.2215 1.20124C-1.1571 1.93205 -1.82501 3.93983 3.95518 4.7116C6.92334 5.10548 10.5128 5.36523 14.0222 5.49998C26.8903 6.01805 39.9038 5.90389 52.5124 4.87645C58.6608 4.36474 64.6589 4.17916 70.8948 4.24265C97.7868 4.47141 124.6 4.68316 151.493 4.94793C177.84 5.20174 204.11 5.52859 230.457 5.78241C234.51 5.82007 238.717 5.74769 242.845 5.58628C246.272 5.45194 248.21 4.83252 248.665 4.0342C249.119 3.23589 247.783 2.56877 244.817 2.28293C242.084 2.01207 238.964 1.85432 235.924 1.80356C226.647 1.63531 217.37 1.50303 208.094 1.40679C162.649 0.931552 117.282 0.437296 71.8375 0.0160733C63.1072 -0.0692023 54.227 0.207669 45.4221 0.321469C45.2656 0.28747 45.2647 0.233443 45.2638 0.179424Z" fill="#00CF83"/>
</svg>
