<svg width="205" height="6" viewBox="0 0 205 6" fill="none" xmlns="http://www.w3.org/2000/svg">
<path d="M37.2124 1.46255C29.1372 1.66834 20.9971 1.85346 12.923 2.09274C10.0394 2.1774 6.90208 2.3467 4.28126 2.61453C-0.960375 3.1502 -1.49508 4.40362 3.26533 4.80726C5.70981 5.01302 8.66435 5.12758 11.5521 5.16568C22.1412 5.32024 32.8452 5.08097 43.2094 4.28072C48.2634 3.88386 53.1959 3.69115 58.3261 3.64976C80.4489 3.44338 102.507 3.22746 124.631 3.0434C146.305 2.85961 167.917 2.7221 189.592 2.53831C192.927 2.50917 196.387 2.40982 199.781 2.2563C202.599 2.12864 204.189 1.71952 204.557 1.2187C204.925 0.717885 203.821 0.32159 201.379 0.182785C199.129 0.050239 196.561 -0.00716182 194.06 0.000739153C186.427 0.0165495 178.795 0.0546569 171.164 0.115105C133.778 0.408905 96.4556 0.689913 59.0705 1.01719C51.8884 1.07737 44.5856 1.364 37.3436 1.54856C37.2146 1.52951 37.2135 1.49603 37.2124 1.46255Z" fill="#00CF83"/>
</svg>
