<svg width="128" height="5" viewBox="0 0 128 5" fill="none" xmlns="http://www.w3.org/2000/svg">
<path d="M23.1736 0.227318C18.1395 0.357681 13.0647 0.463645 8.03187 0.632175C6.23442 0.691456 4.28014 0.843927 2.64974 1.11535C-0.611075 1.65821 -0.923417 3.07974 2.05309 3.60114C3.58151 3.86717 5.42657 4.03584 7.2287 4.11651C13.8371 4.42925 20.5105 4.29465 26.9624 3.51635C30.1085 3.12928 33.1823 2.97328 36.3819 2.99229C50.1792 3.04247 63.9362 3.08095 77.7344 3.15657C91.2524 3.22672 104.732 3.34879 118.25 3.41893C120.33 3.42874 122.487 3.36016 124.602 3.22899C126.358 3.11985 127.343 2.67412 127.564 2.10811C127.785 1.54211 127.089 1.07624 125.563 0.886553C124.158 0.70648 122.555 0.607942 120.995 0.584679C116.233 0.504238 111.473 0.449218 106.714 0.419667C83.3961 0.27222 60.118 0.111016 36.8017 0.00173688C32.3223 -0.0223336 27.7715 0.210123 23.2569 0.327036C23.1761 0.303659 23.1748 0.265486 23.1736 0.227318Z" fill="#00CF83"/>
</svg>
