<svg width="264" height="7" viewBox="0 0 264 7" fill="none" xmlns="http://www.w3.org/2000/svg">
<path d="M47.9659 1.12981C37.5587 1.36288 27.068 1.56781 16.6621 1.84587C12.9457 1.9441 8.90189 2.15471 5.52323 2.5005C-1.2341 3.19208 -1.92933 4.87346 4.20323 5.44145C7.35232 5.7311 11.1592 5.90095 14.8804 5.96768C28.5253 6.23238 42.3203 5.96848 55.6802 4.94895C62.1949 4.44289 68.5523 4.21048 75.1635 4.18248C103.673 4.02425 132.1 3.85285 160.611 3.72461C188.543 3.59432 216.394 3.52588 244.326 3.39559C248.623 3.37439 253.083 3.25951 257.458 3.07149C261.09 2.91512 263.141 2.37393 263.617 1.70295C264.094 1.03197 262.673 0.493517 259.527 0.293854C256.628 0.103639 253.32 0.0126858 250.096 0.00983764C240.26 -0.0100041 230.425 0.000120235 220.591 0.0402679C172.411 0.233807 124.314 0.4105 76.1358 0.649032C66.8802 0.691229 57.468 1.03708 48.1346 1.2461C47.9685 1.2198 47.9672 1.1748 47.9659 1.12981Z" fill="#00CF83"/>
</svg>
