<svg width="265" height="112" viewBox="0 0 265 112" fill="none" xmlns="http://www.w3.org/2000/svg">
<path d="M68.5811 20.0438C76.7894 24.9373 85.1039 29.7662 93.2236 34.8008C99.603 38.7422 104.89 43.9 109.051 50.1209C118.111 63.683 116.135 76.0193 103.124 86.0817C99.0481 89.2284 94.4793 91.8029 89.9051 94.1771C79.6484 99.5414 68.6722 102.814 57.4741 105.291C41.8934 108.689 26.0986 110.443 10.2 111.214C2.62753 111.574 -0.51967 110.319 0.0693043 107.606C1.21769 102.227 6.13826 102.956 9.87862 102.223C16.7763 100.849 23.7843 100.134 30.6994 98.837C40.8954 96.911 51.1787 95.368 61.0883 92.5406C69.9431 90.0346 78.3596 86.1381 86.94 82.6071C89.6215 81.4709 92.1336 79.769 94.522 78.0551C104.695 70.7359 105.653 63.4666 97.4553 53.8571C90.8961 46.1294 82.3704 40.9057 73.3547 36.3578C57.4936 28.2973 40.9692 21.9191 24.2381 15.8702C21.4672 14.8513 18.7556 13.7382 16.174 12.3135C13.6396 10.9183 12.9091 8.42611 13.357 5.62456C13.8169 2.69938 15.8344 0.949459 18.4556 0.431325C20.9532 -0.0988576 23.6202 -0.0633427 26.1221 0.130671C31.2964 0.560303 36.3996 1.20761 41.5204 1.93151C73.4753 6.19522 105.577 7.92753 137.791 6.97529C172.561 5.92279 207.287 5.56495 242.069 7.20907C247.114 7.42645 252.17 8.04419 256.964 4.69304C260.473 2.23983 265.18 6.44241 264.469 10.9155C263.872 14.4762 261.929 17.2567 258.553 18.3502C255.1 19.4611 251.424 20.3008 247.762 20.4928C242.238 20.8277 236.664 20.4089 231.147 20.42C204.146 20.383 177.151 20.0223 150.178 20.4623C125.037 20.8063 99.89 20.9501 74.7654 19.0745C72.723 18.7755 70.2651 17.3628 68.5811 20.0438Z" fill="url(#paint0_linear_11_899)"/>
<defs>
<linearGradient id="paint0_linear_11_899" x1="187.515" y1="18.0438" x2="-1.85737" y2="115.612" gradientUnits="userSpaceOnUse">
<stop stop-color="#00CF83"/>
<stop offset="1" stop-color="#0AA96F"/>
</linearGradient>
</defs>
</svg>
