<svg width="410" height="90" viewBox="0 0 410 90" fill="none" xmlns="http://www.w3.org/2000/svg">
<path d="M6.55934 65.4773C6.54486 65.3081 6.31163 65.1219 6.04141 65.0645L5.81301 64.9729C5.60873 64.8907 5.51866 64.5911 5.1841 64.8705C4.92192 65.0924 4.71925 65.2274 5.13423 65.4912C5.47523 65.7085 4.83345 66.4099 5.66825 66.3541C5.97225 66.3339 6.23764 65.8466 6.49178 65.5564L6.55934 65.4773ZM12.1246 58.0096C12.4576 58.081 12.649 57.8933 12.5477 57.5906L12.4672 57.586C11.8319 57.5487 11.6791 57.2865 11.7354 56.8333L11.7627 56.6207C11.663 56.3181 11.3847 56.3957 11.1403 56.7961C10.8958 57.1965 11.7901 57.9367 12.1246 58.0096ZM135.374 86.6371C135.295 86.1995 135.248 86.1498 135.272 86.5316C135.296 86.9133 135.158 87.9422 135.504 87.9143C135.85 87.8863 135.454 87.0763 135.374 86.6371ZM278.796 85.782C279.071 85.6718 279.127 85.4421 278.925 85.273C278.72 85.1023 278.138 84.6429 278.021 84.4971C277.902 84.3512 277.265 84.5141 277.397 84.8881C277.529 85.2621 278.523 85.8906 278.796 85.782ZM148.322 85.8534C148.127 85.8208 148.227 86.2895 148.544 86.8947L148.976 87.0933L149.507 87.337C150.022 87.6567 150.664 87.8367 150.932 87.7389L151.013 87.5946L151.111 87.4146C151.071 87.1275 150.564 86.9428 149.987 87.0049L149.668 86.8621L149.306 86.7023C149.044 86.3345 148.518 85.886 148.322 85.8534ZM108.798 84.2581C107.891 84.4676 107.425 84.6429 107.764 84.646C108.104 84.6491 109.135 85.1876 109.402 85.3335C109.667 85.4778 110.478 85.6967 110.478 85.439C110.478 85.1814 110.105 84.7019 109.648 84.8928L109.551 84.8214L108.798 84.2581ZM399.84 40.9173C399.549 40.4843 399.394 40.4828 399.496 40.9126C399.597 41.341 400.917 41.8189 401.303 41.85L401.337 41.417L401.352 41.2199C401.673 40.8133 401.299 40.7869 400.52 41.1594L400.248 41.0632L399.84 40.9173ZM206.166 84.8695C205.612 84.8835 205.081 84.9921 204.987 85.1131L205.022 85.1814L205.176 85.467C205.019 85.7463 205.061 86.0598 205.268 86.1669C205.476 86.2724 206.257 85.9015 206.646 85.8099C207.036 85.7168 206.719 84.8555 206.166 84.8695ZM392.983 41.3596C393.43 41.5008 393.625 41.3673 393.419 41.0632C393.213 40.7574 392.489 39.6603 392.126 39.0892L391.471 39.8232L390.982 40.3679C390.446 40.1833 390.297 40.1088 390.652 40.2019C391.006 40.2934 392.537 41.2199 392.983 41.3596ZM112.384 84.6879C111.834 84.8571 111.557 85.2047 111.771 85.4592C111.983 85.7137 112.984 85.1876 113.225 85.0526C113.466 84.9176 114.62 84.8369 115.043 84.84C115.467 84.8416 116.649 84.6352 116.466 84.3791C116.281 84.1246 115.144 84.3481 114.872 84.4241C114.6 84.4986 113.825 84.3745 113.304 84.2891L112.831 84.4939L112.384 84.6879ZM124.052 84.016C123.658 83.8918 123.308 83.8297 123.278 83.8747C123.247 83.9213 123.355 84.182 123.584 84.3512C123.812 84.5203 125.023 84.6181 125.671 84.3714L126.283 84.8338C126.313 84.8571 126.542 84.7702 126.62 84.6957L126.828 84.4971C127.098 84.1836 127 83.8763 126.611 83.8158C126.22 83.7537 124.447 84.1386 124.052 84.016ZM118.831 87.4922C118.316 87.725 117.693 88.2371 117.447 88.6281C117.203 89.0192 115.955 89.3793 116.146 89.1263C116.337 88.8718 116.968 88.1207 117.082 87.9531C117.198 87.787 116.505 87.3525 116.379 87.0747L116.193 86.949L115.742 86.6433C115.458 86.2165 115.129 85.7432 115.01 85.5865C114.893 85.4282 114.301 85.9465 114.134 86.2026L114.14 86.4369L114.143 86.5828C114.195 86.7752 114.066 87.264 113.857 87.6722C113.648 88.0803 113.59 89.297 113.51 89.3218C113.428 89.3498 113.143 89.3094 113.054 89.176C112.968 89.0456 112.506 88.5816 112.302 88.3892C112.097 88.1983 113.042 87.7374 113.154 87.5775C113.264 87.4192 113.257 87.1508 112.898 87.3618C112.54 87.5713 111.494 86.9676 111.267 87.0251C111.041 87.0825 111.292 87.7762 111.385 87.9996L111.419 88.2076L111.452 88.4202C111.438 88.6437 110.931 88.7554 110.328 88.67L109.836 88.6933L109.752 88.6964C109.673 89.1837 109.497 89.522 109.36 89.4475C109.223 89.3715 108.499 89.401 108.06 89.5189L107.782 89.0487C108.242 88.982 108.567 88.7802 108.504 88.6018C108.443 88.4248 108.001 88.0291 107.726 88.2991C107.451 88.5692 106.449 89.2241 106.04 89.2241C105.631 89.2241 104.514 89.1961 104.509 89.1651C104.507 89.1309 104.724 89.0239 105.001 88.9975C105.278 88.9711 106.08 88.6514 106.082 88.3535C106.082 88.0571 107.238 87.7156 107.457 87.6784C107.674 87.6396 108.308 87.413 108.396 87.3013L108.363 87.2221C108.322 87.1244 108.128 86.9707 108.062 86.9878C106.957 87.2734 105.868 87.6132 104.674 87.5729L103.872 87.5465C103.484 88.0307 103.005 88.5055 102.805 88.6002C102.607 88.6964 102.183 88.1905 102.083 88.1253C101.985 88.0617 101.517 87.8553 101.301 87.7731C101.087 87.6924 100.571 87.3835 100.697 87.2858C100.822 87.188 101.298 86.9863 101.475 87.0592L101.527 87.1647L101.808 87.7265C102.423 87.638 103.031 87.5015 103.161 87.4254C103.289 87.3478 103.523 86.9335 103.516 86.7333C103.511 86.5331 102.643 86.1731 102.35 86.1296L102.332 86.0551C102.077 84.9145 101.308 85.5616 101.161 85.9512C100.902 86.6511 100.061 86.7116 99.5466 87.0871L99.0881 87.4223C98.7858 87.8569 98.4801 88.0291 98.4078 87.8056L98.3724 87.5993L98.3064 87.2284C97.7644 87.0235 96.9537 86.6743 96.5066 86.454L96.4261 86.187C96.2283 85.5275 95.7104 85.5058 95.0364 85.5104C94.7453 85.512 94.4059 85.2202 94.1727 85.2761C93.9443 85.3304 93.8429 85.6718 93.6467 85.8612L93.5791 85.9279C93.3234 85.9527 93.3154 86.0769 93.5598 86.201C93.8043 86.3267 94.2547 86.7752 94.0488 86.9382C93.8429 87.1027 92.3213 86.5114 92.5015 86.3174L92.5867 86.1265C92.8425 85.5616 92.4966 85.2311 91.76 85.4577C91.1809 85.6346 91.0249 85.2326 90.6694 85.2032L90.219 85.1644C89.6866 85.2016 88.683 85.3723 87.9881 85.5461L87.6085 85.3677L87.1292 85.1457C86.6933 85.1923 86.0354 85.3211 85.6655 85.4313C85.2939 85.5415 84.0087 85.1969 83.724 85.1442C83.4393 85.0914 82.7155 85.1876 82.3585 85.1613C82.003 85.1349 80.8899 85.0666 80.5763 85.3118C80.2642 85.557 78.9823 85.8255 78.4434 85.3475L77.6376 85.5399L77.0795 85.6718C76.4988 85.6035 75.5755 85.5554 75.0271 85.5663C74.4802 85.5787 72.9409 85.8922 72.291 86.0551C71.6412 86.215 69.6355 85.8425 68.8521 85.9434L68.0688 85.5958L67.493 85.3382C66.4636 85.5647 65.4567 85.7929 65.2556 85.8441C65.0545 85.8953 64.1988 85.8503 63.697 85.8534C63.1935 85.8565 61.8875 86.0582 61.836 85.9434C61.7829 85.827 61.4966 85.616 61.3213 85.7448C61.146 85.8736 60.5187 86.0396 60.2951 85.8472L60.0667 85.7106L59.9123 85.6191C59.7016 85.5772 59.4297 85.6284 59.3059 85.7339C59.1836 85.8394 58.7526 86.0365 58.6126 85.9279C58.4727 85.8192 57.8615 86.0257 57.7296 86.0955C57.5977 86.1653 56.906 86.2848 56.2289 86.3934L55.6289 86.2057C55.3169 86.1095 55.0209 85.9837 54.7201 85.8674C54.3261 85.7153 54.0027 85.2326 53.472 85.7261C53.4285 85.7649 53.1229 85.7091 53.0345 85.6315C52.4538 85.1225 52.1836 84.9642 51.5852 85.7587L51.1831 86.291C50.8968 85.6594 50.559 85.2637 50.4319 85.4158C50.3065 85.5647 49.8432 85.8782 49.7323 85.7153C49.6229 85.5539 49.1741 85.1442 48.9152 85.079C48.6578 85.0138 48.0112 85.5927 47.8584 85.7385C47.7072 85.8829 47.1651 85.6315 47.0831 85.7541C47.0043 85.8782 46.8467 85.9263 46.8981 85.6129C46.948 85.2978 45.9427 85.8239 45.8784 85.8503L45.814 85.8674C45.153 86.0443 45.1401 85.0542 44.3198 85.3832L43.8855 85.5585C43.2759 85.5508 42.6293 85.5244 42.4475 85.5027C42.2674 85.4809 41.6272 85.5973 41.2122 85.6191C40.7956 85.6392 39.57 85.3459 39.3448 85.6051L39.0633 85.751L38.9008 85.8363C38.5968 85.768 38.0869 85.5477 37.7669 85.3459C37.4468 85.1442 35.8222 85.678 35.6598 85.4903C35.4973 85.304 34.8555 85.0061 34.6545 85.1969C34.455 85.3894 33.728 84.9937 33.6106 85.0883L33.5141 85.1799C33.395 85.2932 33.2744 85.5135 33.1763 85.5073C32.8176 85.484 32.1951 85.7354 32.2418 85.1628L32.2546 85.0045C32.6809 84.8214 32.8707 84.5995 32.6761 84.5141C32.4814 84.4272 31.8557 84.3481 31.7078 84.5265C31.5598 84.7066 30.9083 85.1473 30.9164 84.7128L30.8939 84.5033C30.8826 84.4024 30.7797 84.2193 30.7507 84.2239L30.3952 84.2689C30.0108 84.3372 29.7744 84.1262 29.8677 83.7987L29.2371 83.9368L29.1181 83.9632C29.012 84.0656 28.6002 84.0532 28.1997 83.9368C27.7992 83.8189 26.2663 83.8142 25.824 83.8344C25.38 83.853 23.9758 83.3223 23.6075 83.3611C23.2408 83.3999 22.266 83.5628 22.1229 83.2245C21.9781 82.8847 20.2957 82.6798 20.1445 82.7155L20.122 82.6907L19.3386 81.7549C17.9521 81.6121 16.7088 81.4693 16.5769 81.4321C16.445 81.398 15.8193 81.415 15.3255 81.384C14.8317 81.3514 12.7954 81.4631 11.9059 81.5268L11.729 80.6437C11.7113 80.5475 11.359 80.383 11.285 80.4172L10.7751 80.6515C10.2588 80.4684 9.72481 80.1937 9.58809 80.0447C9.45137 79.8926 8.56027 79.6071 8.29809 79.5031C8.0343 79.3976 7.22846 79.1958 7.11748 79.2269C7.00649 79.2595 6.63976 79.1617 6.5529 78.9305L6.38562 78.7815C6.29233 78.7008 5.96903 78.6884 5.82105 78.7505C5.24522 78.991 4.60505 79.0344 4.19328 79.0546C3.30219 79.0965 3.73808 78.7986 3.78795 78.4603C3.81368 78.2833 3.26037 78.0707 3.96327 78.0009C4.28818 77.9683 4.60987 77.8535 4.90744 77.734C5.24361 77.6005 5.18571 77.4608 4.92835 77.2467L4.65008 77.017C4.93318 76.8091 5.48488 76.3932 5.87896 76.0936C6.27303 75.7926 6.74914 74.6349 6.31485 74.5744L5.99798 74.607L5.62643 74.6442C5.23235 74.7637 4.62113 74.7342 4.27049 74.5759C3.91984 74.4176 4.00348 73.0644 4.13698 72.5274C4.27049 71.9889 4.57127 70.5535 4.51497 70.5364C4.46189 70.5178 4.03243 70.7521 3.722 71.064L3.30058 70.5488L3.08665 70.2865C3.16708 70.0382 3.41478 69.5959 3.63836 69.3042L3.2475 69.1614L3.04001 69.0854C2.55747 69.2933 2.26955 69.2421 2.40305 68.9721L2.4304 68.7471L2.50439 68.1263C2.16178 67.518 1.84974 66.7979 1.81435 66.5263C1.77736 66.2548 2.21647 65.3593 2.86629 65.1126C3.51451 64.8643 3.50968 63.4459 3.03679 63.5592L2.76174 63.7392L2.469 63.9316C2.13283 64.107 1.48301 63.8168 1.0262 63.2845L1.26426 62.8329C1.34307 62.687 1.33342 62.5101 1.43154 62.3751C1.66477 62.0492 1.93821 61.7435 2.19234 61.4269C2.47704 61.0699 2.80678 61.8847 3.13973 61.3943L3.23463 61.2531C3.63192 61.1848 3.58689 61.0311 3.13812 60.9086L3.11721 60.7766C3.08344 60.5578 3.3038 60.2893 3.49199 60.0861C3.59171 59.979 3.87319 59.9883 4.03404 59.8998C4.42329 59.6872 4.5391 59.0432 4.15468 58.9485C3.67857 58.829 3.5515 58.6785 3.37457 58.3449L3.28128 58.1695C2.60733 58.1105 2.67328 57.8808 3.42604 57.662C4.18041 57.4432 6.2103 56.5214 7.15286 57.018L8.2997 56.8659C8.5265 56.8364 9.01065 57.2353 9.10555 57.4975L9.34038 58.1462C9.89048 57.9584 10.1848 57.5472 9.99664 57.2322L10.0304 56.9668C10.1334 56.1614 10.3071 55.3575 10.5242 54.5676L10.5741 54.3907C10.8765 54.2448 11.2577 54.0741 11.4217 54.0167C11.5874 53.9577 12.0008 53.4782 12.2984 53.4735C12.5943 53.4704 13.4629 53.354 13.569 53.2966C13.6768 53.2407 14.0242 52.9629 14.1497 52.8466C14.2768 52.7317 14.8767 53.1678 14.97 53.2392C15.0617 53.3106 15.5652 53.4006 15.607 53.0809C15.652 52.7628 16.0445 52.2118 16.4064 52.412C16.7683 52.6122 17.7623 52.1839 17.6883 52.1187C17.6143 52.0551 17.6015 51.7928 17.8234 51.678L17.9457 51.7214C18.4524 51.8953 19.0362 52.547 19.2019 51.5042L19.2051 51.4825C19.3611 51.4778 19.744 51.5414 20.0544 51.6237C20.3648 51.7075 21.3749 51.3738 21.6677 51.3583C21.9588 51.3428 22.8724 51.4126 23.3196 51.4126C23.7667 51.4111 24.5308 50.7577 24.2123 50.6305C23.8938 50.5048 23.207 49.8204 23.3791 49.3874C23.5512 48.9545 21.7948 47.7269 21.9443 47.6866C22.0972 47.6478 22.2596 47.266 21.7996 46.9712L21.8092 46.7229L21.8334 46.1642C21.3717 46.1518 20.82 45.9981 20.6061 45.8212L20.4597 45.6365L20.1316 45.2206C20.3407 44.7442 20.3504 43.9481 20.1525 43.4546L20.0303 42.9875L19.9917 42.8416C20.0608 42.6476 20.5016 42.6833 20.9712 42.9223C21.4393 43.1598 22.8917 42.733 22.9303 42.6523C22.9689 42.5731 22.8194 42.2581 22.5202 42.134L22.3802 42.1991L22.0569 42.3497C21.6387 42.5483 21.3653 42.5468 21.4473 42.3466L21.5133 42.1619L21.5808 41.9695C21.6452 41.7553 21.605 41.6094 21.4924 41.6467C21.3782 41.6824 20.8828 41.7258 20.6415 41.6606C20.3986 41.597 20.8779 40.6628 21.0645 40.2034L21.7272 40.0901C21.8575 40.0669 22.0939 40.0157 22.0923 39.9893L21.9878 38.9355C23.0349 38.529 23.667 38.082 23.3936 37.9423C23.1201 37.8011 22.0618 37.9811 21.8913 37.9392C21.7208 37.8973 20.4501 37.5373 19.4705 37.1928L18.4459 37.3542C17.9859 37.4256 17.9312 37.2052 17.8074 36.8871L17.624 36.4122C17.3345 36.7133 16.7538 36.8653 16.334 36.7567C15.9126 36.6465 14.6097 36.1577 14.3508 35.959L14.3845 35.9218L14.7448 35.5292C14.5197 35.1366 14.2494 34.7424 14.1465 34.6555C14.0435 34.5655 13.6961 34.4382 13.606 34.5686L13.4838 34.6508L13.3036 34.7734C13.0736 34.8758 12.6072 35.0496 12.2662 35.1552C11.9268 35.2607 10.8523 35.4423 10.6818 35.3104C10.513 35.1769 10.1607 34.5918 10.3376 34.3498C10.513 34.1108 11.7901 34.5034 12.2951 34.5143L12.374 34.2582C12.4592 33.9835 12.1874 33.3674 12.0442 33.3628L9.78754 33.2836C10.0835 32.053 10.0594 31.0148 9.73285 30.9744C9.40794 30.9341 8.84819 31.5021 8.76455 31.4338C8.6793 31.3671 8.43642 31.1715 8.40747 31.1498C8.38013 31.1265 8.19676 30.8596 8.06487 30.6051C7.93297 30.3506 8.38013 29.4846 8.52971 29.2767L8.57314 29.0765L8.61335 28.8903C8.55545 28.673 8.33026 28.5178 8.11312 28.5442L7.9185 28.5799L7.76247 28.6094C7.59519 28.6559 7.40861 28.583 7.35071 28.4449L7.407 28.3797L7.70939 28.0259C8.22893 27.4982 8.16781 27.2251 7.57428 27.4175L7.24133 27.4393L6.60759 27.4812C5.88378 27.4641 5.25487 27.2701 5.21144 27.0482L5.22431 26.8899L5.35781 25.262C4.49567 24.5869 3.67374 23.9848 3.53059 23.9212L3.48716 23.8374L3.31345 23.4959C3.37296 23.0909 3.21211 22.4143 2.95798 21.9937L2.59124 21.8742C1.66798 21.5763 1.68728 21.0455 1.73393 20.4465L1.75162 20.2215C1.74358 19.7978 1.26908 19.6256 0.698076 19.8366L1.07285 19.2919C1.42028 18.7875 0.794584 18.8 0.60961 18.5951C0.558139 18.5377 0.205884 19.2422 0.0241268 18.5889L0 18.5005C0.291133 18.3515 0.579049 18.2025 0.640171 18.1715C0.701293 18.1373 0.529187 17.6159 0.110985 17.0867L0.262181 16.4846C0.300784 16.3278 0.434287 16.1726 0.414985 16.0283L0.394075 15.8592C0.263789 15.6822 0.297567 15.5659 0.466456 15.6015C0.636954 15.6372 1.36077 15.541 1.66637 15.3036C1.97359 15.0677 1.52483 14.1676 1.74358 14.0978L1.79827 14.1366C2.37088 14.5416 2.87273 14.6192 3.36974 14.0497L3.7976 13.5593C4.25923 13.9069 4.6726 14.0373 4.71603 13.851C4.76107 13.6648 5.48166 13.0223 6.21995 12.8361L6.72501 13.6788L6.98719 14.1149C7.69653 13.6291 8.15977 13.1977 8.01661 13.1589C7.87507 13.1201 7.51799 12.9106 7.56141 12.7864L7.59358 12.788C7.93458 12.8004 8.27718 12.8299 8.61657 12.8702L8.7742 12.8873C8.94148 12.9385 9.14737 12.8516 9.2294 12.698C9.31304 12.5459 9.8953 12.6266 9.9516 12.5211C10.0079 12.414 10.3344 12.1176 10.4438 12.3038C10.5548 12.4885 11.1933 12.7135 11.5134 12.2138L11.7643 11.9764L11.9027 11.8491C12.1906 11.8134 12.7326 11.905 13.1042 12.054C13.4774 12.2029 14.8365 11.86 15.1067 12.0183C15.377 12.1735 16.1716 12.5319 16.4707 12.0788L16.7265 11.7669L16.979 11.4596C17.4455 11.4301 18.039 11.5093 18.2963 11.6365C18.5537 11.7653 19.0748 11.1446 19.3853 11.1539C19.6941 11.1632 20.5755 11.3385 20.6914 11.4223C20.8056 11.5061 21.3444 11.6319 21.4731 11.3742C21.6001 11.1166 22.1953 10.4866 22.4944 10.5859C22.7936 10.6821 23.5174 10.5424 23.7523 10.4586C23.9887 10.3733 24.6611 10.6278 24.7801 10.5486L24.7962 10.4679L24.8557 10.17C25.1323 10.2119 25.8642 10.454 26.4818 10.7116L26.559 9.89841L26.5655 9.83633C26.699 9.78202 27.3134 9.62838 27.9311 9.49337C28.5471 9.35835 30.6188 9.66563 31.156 9.64235L31.5437 9.73236C31.9426 9.82702 32.2064 10.2522 32.2289 9.55234C32.2305 9.4794 32.6905 9.33973 32.705 9.3568C33.1892 9.90927 33.9178 9.46233 34.0545 9.31645C34.4936 8.84624 35.1097 9.48561 35.5809 9.04177L35.7595 8.87417C36.5171 9.08833 37.228 9.28076 37.339 9.30249C37.4516 9.32266 38.0467 9.03556 38.4633 8.72829C38.8815 8.41947 40.3163 8.96107 40.3951 8.92538V8.89279L40.3629 8.06254C41.061 8.23324 42.1017 8.15255 42.6775 7.87942L43.1761 8.52034L43.4222 8.83692C43.9402 8.62121 44.6238 8.33877 44.9422 8.20686L45.272 8.14323L45.3765 8.12151C45.4843 8.09047 45.851 8.08426 46.192 8.10909C46.5346 8.13548 47.7345 8.04081 48.0916 8.10289C48.4487 8.16496 49.3414 7.81269 49.4299 7.90114C49.5199 7.9896 49.8947 8.20531 49.9735 8.09047L50.0556 7.99581L50.144 7.89338C50.255 7.78475 50.3757 7.76458 50.4126 7.84683C50.448 7.93063 50.6282 8.20997 50.7199 8.25342L50.8051 8.23324L51.4469 8.08737C52.1739 7.96632 52.8736 7.82044 53.0039 7.75837L53.0972 7.67612L53.7502 7.08486C54.2456 7.63112 54.7539 7.94149 54.881 7.77544C55.008 7.60939 55.4279 7.26953 55.5533 7.35954C55.6804 7.44955 55.9538 7.10503 55.9763 6.461L56.9093 7.27574L57.0717 7.41696C57.5542 7.33781 58.1799 7.2897 58.4663 7.30988C58.7493 7.3285 59.4088 7.45886 59.4281 7.25711C59.4474 7.05537 60.4189 7.02744 60.5701 7.17176C60.7197 7.31453 60.9835 7.06003 60.9626 6.45169L61.9904 7.21677C62.0934 7.29436 62.6611 6.99485 63.007 6.86139L63.1887 6.79155C63.3673 6.70154 64.1152 6.47186 64.8503 6.27943C65.5869 6.08855 67.4865 6.94208 67.6377 6.94674C67.7905 6.94984 68.6961 6.80397 69.3266 6.69223C69.9572 6.5805 72.2589 6.64878 72.7237 6.69999L72.9232 6.55567L73.3993 6.2096C73.8255 6.39737 74.4191 6.57739 74.7182 6.60843L75.0013 6.60998L75.516 6.61309C76.0372 6.40358 76.687 6.17701 76.9572 6.11028C77.229 6.04355 78.5689 5.94268 79.2847 5.94112L79.9377 5.9225L80.1291 5.91629C80.335 5.83404 80.5345 5.88836 80.5714 6.03579C80.6084 6.18477 81.3805 6.10407 81.4899 5.98302C81.5993 5.86353 82.0721 5.60902 82.2443 5.74404C82.418 5.8806 83.0195 6.10407 83.264 5.99234C83.5085 5.88215 84.5588 5.56247 85.0559 5.52988L85.2183 5.72852C85.5754 6.16459 85.992 5.29865 86.3828 5.84956L86.5485 6.08545C87.1597 5.82939 87.7999 5.7161 87.972 5.83094C88.1425 5.94888 88.6669 6.18632 88.7151 6.07769C88.7634 5.96751 88.9837 5.70989 89.0963 5.74714C89.2089 5.78438 89.5789 5.73628 89.6673 5.55936C89.7558 5.3809 91.1906 5.43832 92.0398 5.28468L92.9727 5.52367C93.7223 5.7161 94.734 5.7937 95.6332 5.28778L96.0642 5.04569C96.8797 5.17139 97.6309 5.35762 97.7306 5.45849C97.8319 5.56091 98.3241 5.59971 98.5734 5.26761C98.8211 4.93396 99.9583 5.50194 100.037 5.37158C100.114 5.24123 100.436 4.93551 100.483 5.14812C100.528 5.36072 100.782 5.60592 100.965 5.32503C101.149 5.04569 102.487 5.45849 103.037 5.32968L103.692 5.41969L104.552 5.53764C105.591 5.20398 106.5 5.02862 106.572 5.14812C106.643 5.26761 106.921 5.5097 107.003 5.37469C107.087 5.23812 107.46 4.88895 107.668 4.87188L107.743 4.93085L108.356 5.41504C109.175 5.339 110.285 5.30951 110.822 5.34831C111.359 5.38555 113.042 5.15898 113.436 5.44297L113.901 4.92465C113.979 4.83774 114.558 5.07983 114.901 5.06897L115.911 5.04259C117.021 4.97586 118.575 4.81291 119.361 4.681L119.95 5.23036L120.069 5.34055C120.455 5.27692 121.037 5.22726 121.365 5.23192C121.694 5.23657 122.498 5.39331 122.532 5.21329C122.567 5.03483 123.64 5.1326 124.013 5.48953L124.594 5.04259L124.782 4.89826C125.306 4.98982 125.929 5.0907 126.165 5.11863C126.403 5.14812 127.27 5.24123 127.589 5.24588H127.878C128.097 5.24588 128.324 5.27847 128.528 5.23812C128.755 5.19157 128.949 5.04724 129.176 5.00845L129.311 4.98672C129.488 5.06121 129.836 5.05811 130.083 4.97896C130.333 4.89982 131.098 5.15432 131.48 5.40107L131.467 4.75549V4.75084C131.698 4.74618 132.523 4.94172 133.3 5.18381L134.018 5.21174L134.579 5.23192C135.213 4.98672 135.848 4.73687 135.99 4.67634C136.131 4.61427 136.652 4.90602 136.876 5.28313L137.56 5.08139C137.915 4.97586 138.56 4.87343 138.692 5.00689C139.253 5.57023 139.435 4.64686 139.953 4.87964L140.403 5.08294C141.043 5.10932 141.865 5.21485 142.229 5.31727L142.343 5.22881L143.028 4.69186C143.762 4.96034 144.479 5.0907 144.621 4.98206C144.764 4.87033 145.316 4.67169 145.462 4.84084C145.607 5.00845 146.044 5.48487 146.073 5.48332C146.1 5.48177 146.535 5.30485 146.93 5.13725C147.326 4.96965 148.973 4.94792 149.499 5.01465C150.027 5.08294 151.437 4.95724 151.844 5.10001C152.253 5.24278 153.297 4.71825 153.657 4.90137L153.668 4.88895L154.662 3.8073C155.98 4.2651 157.321 4.63289 157.644 4.62669C157.968 4.61893 158.571 4.51961 158.531 4.82067C158.492 5.12329 159.752 4.53668 160.075 4.41873C160.4 4.30079 161.101 4.3908 161.341 4.43425C161.58 4.47771 162.198 4.32097 162.254 4.42804C162.311 4.53357 162.6 4.8036 162.713 4.67324C162.825 4.54288 163.564 4.22165 164.125 4.22475L164.588 4.43736L165.972 4.84084L166.288 4.65152C166.703 4.40166 167.101 4.27441 167.173 4.37218C167.244 4.46995 167.804 4.82532 168.153 5.01L168.889 4.44201L168.973 4.37683C169.155 4.37994 169.473 4.47926 169.679 4.59875C169.885 4.71825 171.154 4.67169 171.933 4.3908L171.995 4.33959L172.288 4.09284C172.656 4.22009 172.869 4.72756 172.761 5.22105L173.705 4.73842L174.421 4.37218C174.373 4.83464 174.387 4.94637 174.456 4.62203C174.525 4.29614 175.561 4.79274 175.616 4.78032C175.671 4.76635 176.134 4.69652 176.521 4.61893C176.911 4.54133 178.362 4.92154 178.751 5.00689C179.14 5.09225 180.1 4.65617 180.243 4.76946C180.388 4.88119 180.79 5.18226 180.824 5.19157C180.858 5.20088 181.051 5.08294 181.221 4.94948C181.39 4.81601 182.148 4.66393 182.45 4.75704L182.738 4.77566C182.905 4.78808 183.203 4.54288 183.251 4.57703L183.739 4.9293C184.239 4.74928 185.148 4.75239 185.759 4.93551L186.328 5.09225L186.555 5.15432C186.837 5.15277 187.203 5.05811 187.371 4.94637C187.536 4.83464 188.236 4.80515 188.456 4.67324C188.677 4.54133 190.076 4.82998 190.761 4.86878L191.401 4.90913L191.945 4.94172C192.518 5.08449 193.077 5.12173 193.19 5.02241C193.303 4.92154 193.969 4.7198 194.419 4.78963L194.765 4.92465C195.128 5.06742 195.431 5.51746 195.452 4.77877C195.453 4.75704 195.719 4.71825 195.855 4.72756C196.695 4.78032 197.559 4.9681 198.364 4.86412L198.985 4.78498C199.476 4.96655 199.986 5.12639 200.121 5.14346C200.256 5.15898 200.869 5.05035 201.208 4.97431C201.546 4.89516 203.64 5.03483 204.221 5.19312C204.8 5.35451 206.408 4.57858 206.78 4.59099C207.153 4.60341 208.527 4.44512 208.996 4.25579C209.468 4.06801 210.558 4.87033 210.682 4.85636C210.808 4.84084 211.506 4.4327 211.803 4.74463L212.11 4.80049C212.431 4.85636 212.887 4.51495 213.177 4.59254L213.778 4.75239C214.097 4.46529 214.552 4.24182 214.789 4.25734L214.937 4.34114L215.212 4.50098C215.466 4.7229 215.799 4.8067 215.951 4.68721C216.103 4.56771 216.511 4.41873 216.54 4.60651C216.568 4.79274 217.492 4.82532 217.644 4.67634C217.795 4.52892 218.459 4.33338 218.602 4.50409C218.744 4.67324 219.222 5.14656 219.315 5.14036L219.347 5.08604C219.809 4.31476 220.502 4.95413 221.074 4.91844L221.351 4.89981C221.755 4.78032 222.231 4.71204 222.409 4.74618C222.59 4.78187 223.079 4.82222 223.397 4.93706C223.716 5.05035 225.086 4.71514 225.667 4.85792L226.31 4.72911C226.666 4.65927 227.154 4.96344 227.491 4.87654L228.066 4.72756C228.636 4.82532 229.512 4.93706 230.014 4.98051L230.482 4.91223L231.303 4.79274C232.223 4.72756 233.099 4.66238 233.249 4.64841C233.399 4.63444 233.881 4.9262 234.11 5.1776C234.338 5.429 235.359 5.03328 235.53 5.14812C235.7 5.26451 236.242 5.48642 236.357 5.384L236.336 5.30796C236.271 5.07673 236.022 4.67634 236.059 4.66238L236.598 4.43736C236.718 4.78808 236.936 5.11087 237.079 5.15277C237.223 5.19467 237.632 5.06897 237.777 4.96499C237.922 4.85792 238.431 4.67014 238.597 4.79274C238.763 4.91378 239.226 4.80825 239.263 4.29614L240.104 4.636L240.13 4.64686C239.996 4.91068 240.338 5.05966 240.888 4.98051C241.438 4.89981 242.752 5.50349 242.871 5.40883L242.868 5.32503L242.848 4.73842C243.352 4.84705 243.866 5.02396 243.994 5.13415C244.119 5.24433 244.547 5.46625 244.582 5.27847C244.619 5.08914 244.994 4.8005 245.341 5.02862C245.689 5.25519 247.108 4.89826 247.495 4.8905C247.883 4.8843 248.896 5.30641 248.975 5.45073C249.055 5.59816 250.104 5.32348 250.242 5.17605C250.384 5.02707 251.138 4.88119 251.386 5.41659L252.134 5.24899C252.924 5.07207 251.647 4.67014 252.221 4.60341L252.803 4.53668C253.474 4.55064 255.068 4.56306 256.343 4.56306H257.505C258.085 4.56306 258.666 4.54288 259.245 4.56927L259.729 4.58944C260.247 4.66859 261.069 4.47305 261.556 4.15336L262.078 4.73377L262.39 5.07983C262.433 4.76791 262.703 4.32407 262.991 4.09594L263.236 4.33959L263.628 4.73221C264.101 4.61272 264.789 4.45443 265.159 4.38149C265.529 4.30855 266.749 4.10836 267.041 3.94852C267.334 3.78712 268.418 4.23872 268.801 4.26044C269.182 4.28217 270.31 4.4358 270.506 4.34424C270.702 4.25424 271.494 4.04473 272.008 3.94541L272.394 3.75298L273.126 3.38984C273.438 3.81971 273.721 4.02921 273.753 3.85695C273.787 3.68314 274.239 3.24552 274.665 3.38518C275.093 3.52485 276.525 3.88178 276.959 3.88178C277.392 3.88334 278.928 3.26414 279.759 3.24552L280.45 3.27655C281.154 3.30759 281.812 3.18654 282.487 3.20517L282.952 3.21914C283.33 3.03601 283.988 2.98635 284.418 3.11206L284.633 3.00808C285.309 2.68063 285.508 2.82961 285.584 3.37587L285.59 3.42243C285.968 3.43329 286.832 3.09654 287.507 2.67598L288.522 3.32001L288.625 3.38518C288.738 3.45657 288.838 3.28586 288.849 3.00342C288.86 2.72253 290.166 3.04377 290.47 3.12757C290.776 3.21293 291.865 3.12602 292.187 3.05464C292.51 2.98325 293.52 2.76133 293.779 2.81875C294.039 2.87617 295.053 2.56114 295.629 2.61856C296.203 2.67598 297.898 2.57821 298.139 2.66667C298.381 2.75823 298.895 3.13689 298.947 3.01739C299 2.89945 299.31 2.69926 299.429 3.04377L299.606 3.10274L299.899 3.20051C300.277 3.15861 301.131 3.09033 301.792 3.04843L302.175 2.82185L302.687 2.51924C303.063 2.69615 303.505 2.84203 303.671 2.84203C303.835 2.84203 304.279 2.66667 304.419 2.59373C304.559 2.52079 305.503 2.71943 306.011 2.82806C306.518 2.93514 307.985 2.55959 308.117 2.52234C308.249 2.48355 308.913 3.17723 308.955 2.97859C308.998 2.77685 309.461 2.31905 309.907 2.3175L310.301 2.34077L310.808 2.37026C311.347 2.58442 312.107 2.70702 312.498 2.64494C312.888 2.58287 314.097 2.25232 314.393 2.198C314.689 2.14213 315.453 2.42458 315.498 2.23835C315.545 2.05213 315.767 1.57415 315.897 1.58346L315.961 1.63312C316.476 2.02885 316.909 2.49441 317.784 2.01333L318.036 1.87521C318.528 1.96677 319.125 2.01798 319.363 1.9885C319.601 1.95901 320.32 2.17783 320.479 2.1949L320.616 2.16696L321.139 2.06454C321.712 1.94504 322.553 1.89228 323.006 1.94815L323.425 1.98074L323.746 2.00402C324.182 1.68899 324.66 1.58191 324.808 1.76192C324.956 1.94505 325.429 2.17007 325.644 2.00091C325.86 1.83021 326.717 1.47638 326.944 1.68899C327.172 1.90004 327.954 2.09092 328.634 2.14058L329.178 2.22438L329.714 2.30818C330.108 2.1592 330.753 2.01643 331.147 1.99315L331.489 1.84262L331.655 1.76968C331.909 1.81003 332.763 1.67657 333.553 1.47328L334.33 1.96832L334.74 2.23059C335.522 2.19179 336.197 1.9466 336.239 1.68588C336.281 1.42672 337.241 1.60363 337.476 1.70606C337.711 1.80848 338.674 1.87211 338.993 1.92953C339.313 1.98695 340.096 1.62381 340.162 1.65329C340.228 1.68278 340.513 1.88297 340.679 2.00402C340.844 2.12506 342.081 2.37336 341.893 2.198C341.705 2.02264 341.743 1.82865 342.3 2.06454L342.902 1.52604C343.154 1.30102 344.01 1.46552 344.587 1.495L345.013 1.51828C345.338 1.77589 345.684 1.99936 345.782 2.01177C345.88 2.02729 346.688 2.03971 347.478 2.1111L348.023 1.53535L348.11 1.44379C348.874 1.69985 349.427 1.76658 349.337 1.59432C349.249 1.42206 349.105 0.984434 349.171 0.922359C349.237 0.858732 349.799 0.759412 350.309 0.691129C350.82 0.622847 352.235 1.04185 352.467 0.930118L352.575 0.976674L353.072 1.19549C353.667 1.17066 354.384 1.26377 354.664 1.40034C354.946 1.5369 355.962 0.753205 356.606 0.371444L357.235 0.582498L357.965 0.826142C358.396 0.5018 358.804 0.230223 358.872 0.224015C358.94 0.217808 359.2 0.152629 359.4 0.0269273C359.601 -0.0987746 360.444 0.250397 360.664 0.359028C360.886 0.46766 361.751 0.680267 361.579 0.355925C361.407 0.0315828 362.399 0.306265 362.584 0.275227C362.771 0.245741 363.503 0.31092 363.781 0.501801C364.061 0.694233 365.124 0.664748 365.05 0.579395C364.976 0.494042 365.901 0.298505 367.268 0.33575L367.77 0.635261L368.703 1.18928C368.785 0.598017 369.192 0.411791 369.609 0.77493L370.477 0.52663C371.389 0.267467 372.528 0.376098 373.556 0.767171C373.942 0.913047 374.497 1.21722 375.175 0.85718C375.483 0.694233 376.308 1.05582 376.842 1.26688C377.102 1.37085 376.187 1.6145 376.778 1.80848C376.945 1.8628 377.267 1.56484 377.493 1.58656C377.855 1.61915 378.405 1.71537 378.51 1.90625L378.843 2.52234C379.578 2.70546 380.569 2.97239 381.046 3.11516C381.524 3.25948 383.06 3.49692 383.347 3.45192C383.634 3.40846 384.511 3.6459 384.717 3.57917C384.921 3.51244 385.343 3.46123 385.299 3.74056C385.256 4.01835 386.317 3.61797 386.497 3.56365C386.678 3.50933 387.422 3.56055 388.001 3.56365C388.579 3.56831 390.023 4.16267 390.176 4.12077C390.329 4.07732 390.844 4.04939 390.855 4.20302C390.866 4.35666 391.394 4.80515 391.986 4.69186C392.578 4.57858 394.393 5.21485 395.092 5.38555L395.309 6.087C395.418 6.43462 396.452 6.47962 396.649 7.15779L396.737 7.46506C397.405 7.6994 398.059 7.92597 398.194 7.97098C398.329 8.01753 398.574 8.34188 398.434 8.59483L398.445 8.59949L399.034 8.82296C398.804 9.19696 398.633 9.78822 398.654 10.1358L398.712 10.4664L398.836 11.1616C399.015 11.9221 399.277 12.5645 399.422 12.5909L399.563 12.6002L399.713 12.6095C399.877 12.608 400.023 12.6701 400.036 12.7461C400.05 12.8252 399.73 13.0425 399.414 13.1775L399.153 13.3281C399.093 13.3622 399.138 13.5469 399.193 13.6415C399.217 13.6819 399.388 13.6881 399.488 13.6788C399.544 13.6726 399.584 13.5779 399.644 13.5686L399.983 13.5205C400.359 13.4786 400.652 13.536 400.633 13.6477C400.615 13.7579 400.905 14.2856 401.321 14.5711L401.595 14.8861L401.77 15.0879C401.799 15.496 401.419 15.6807 400.927 15.5007C400.435 15.3207 399.245 15.465 399.648 16.3263C400.052 17.1891 400.139 19.5262 399.737 19.6349C399.333 19.7435 398.236 20.102 398.378 20.1361C398.519 20.1718 399.052 20.4682 399.417 20.6964L399.555 20.9648C399.959 21.7532 400.216 20.5489 400.631 20.9478L400.869 21.179C401.368 21.3559 401.633 21.7066 401.461 21.9565C401.289 22.2063 401.794 23.5099 401.894 24.1229L401.57 24.6924C401.22 25.3054 401.868 26.3545 402.688 26.415L403.383 26.4678C404.16 26.5935 404.491 26.713 404.12 26.7363C403.748 26.758 402.696 26.9908 402.696 27.2018C402.696 27.4129 403.071 28.0647 403.53 27.9933L403.964 27.9405L404.208 27.9095C404.474 27.9079 404.9 27.9498 405.157 28.0057C405.413 28.0616 406.701 27.9405 407.308 27.956C407.914 27.9746 408.638 29.2643 408.559 29.3744L408.238 29.3341C407.601 29.2534 407.263 29.6615 407.509 30.0805C407.678 30.3707 407.831 30.7385 408.135 30.8875L408.802 31.215C408.844 31.7767 409.016 32.112 409.185 31.9583L409.354 31.9242C409.528 31.8869 409.812 31.918 409.917 32.0111C410.018 32.098 410.028 32.3447 409.941 32.4518C409.651 32.7948 409.251 32.9981 408.67 32.9329C408.561 32.9205 408.318 33.1145 408.308 33.2246C408.295 33.3426 408.443 33.5319 408.588 33.5893L409.056 33.7771C409.603 33.9463 409.585 34.2939 409.016 34.5515L408.514 34.5779L408.107 34.5981C407.522 34.3187 407.046 34.4708 407.051 34.9364L406.964 35.2467L406.837 35.6968C406.28 35.8349 405.559 35.9684 405.236 35.9916C404.911 36.0149 404.992 36.9848 405.202 37.5094C405.413 38.0324 405.798 39.7503 405.463 39.8853C405.127 40.0203 405.426 40.9266 405.625 41.0849C405.823 41.2447 406.151 41.7832 405.889 41.9307L405.558 42.0455C405.276 42.1433 404.931 41.6343 404.619 42.0874L404.58 42.1433C404.302 42.0983 403.79 41.9477 403.444 41.8112C403.099 41.6731 401.738 41.9136 401.164 42.0346C400.589 42.1541 398.691 41.6498 398.226 41.4667C397.762 41.282 396.047 41.3891 395.687 41.3239C395.328 41.2603 394.411 40.8118 394.299 40.9964C394.186 41.1796 393.956 41.8282 394.001 42.0874C394.046 42.3466 395.153 42.4862 395.415 42.4831L395.532 42.5762C395.778 42.7733 395.574 43.2761 396.287 43.2001L396.402 43.1877C396.594 43.5493 397.028 43.5896 397.364 43.2761L397.44 43.9791L397.454 44.1219C397.877 44.2476 398.6 44.3376 399.06 44.3221L399.145 44.7535L399.216 45.1043C399.327 45.5062 399.222 45.7219 398.986 45.5838C398.749 45.4457 397.877 45.3541 397.736 45.4643C397.594 45.576 396.912 45.7033 396.547 45.4907C396.184 45.2765 395.334 44.6232 395.206 44.7721L395.238 44.842C395.442 45.3044 395.928 45.7855 395.848 46.2045L395.757 46.6887C395.18 47.2396 394.858 47.8061 395.043 47.9473C395.227 48.0885 396.012 48.0559 396.311 47.8293L396.517 47.564L396.65 47.3917C396.687 47.1465 396.771 46.9649 396.838 46.9851L396.867 47.0208L397.298 47.5469C397.82 47.2738 398.378 47.1062 398.537 47.1745C398.696 47.2443 398.646 47.699 398.054 48.0388L398.436 48.5898L398.595 48.821C399.015 48.7155 399.555 49.0383 399.795 49.5364C400.033 50.0346 400.34 50.5948 400.227 50.6832C400.115 50.7701 399.534 50.8058 399.195 50.5591L398.878 50.3434L398.836 50.3139C398.661 50.3279 398.428 50.466 398.317 50.6212C398.204 50.7748 398.08 51.3024 398.373 51.3273C398.666 51.3506 399.531 51.5663 399.272 51.7199C399.013 51.872 398.362 52.4648 398.466 52.6557C398.572 52.8481 399.008 53.3214 399.146 53.1802L399.269 53.1538C399.684 53.0607 400.301 53.4549 400.76 54.1936L400.95 54.5009C400.687 54.8485 400.403 55.1961 400.319 55.2706C400.234 55.3451 400.213 55.657 400.457 55.7905L400.683 55.792C401.278 55.7982 401.469 55.9612 401.215 56.3972C401.146 56.5198 400.982 56.7107 401.028 56.7495L401.294 56.9745C401.213 57.2337 400.866 57.4029 400.522 57.3517L400.367 56.9932L400.305 56.8504C399.452 56.7852 399.478 56.9901 400.366 57.3066L400.018 57.946L399.835 58.2843C399.695 58.677 399.709 59.1037 399.869 59.2325C400.03 59.3613 400.35 60.0193 400.123 60.2661C399.894 60.5097 398.817 60.8511 398.801 61.0808L398.907 61.2407L399.113 61.5464C399.286 61.939 399.28 62.1392 399.098 61.9902C398.916 61.8412 398.202 61.7047 397.993 61.776C397.784 61.8474 397.025 61.8397 396.764 61.7807C396.502 61.7217 395.764 61.8583 395.894 61.953C396.024 62.0476 396.507 62.4232 396.719 62.552C396.933 62.6808 397.614 62.3564 397.688 62.3502C397.765 62.344 397.911 62.5116 397.871 62.7801C397.831 63.0486 398.929 62.7646 399.137 62.7305C399.344 62.6979 399.679 62.9322 399.315 63.0796C398.952 63.227 397.951 63.4924 397.874 63.3543C397.795 63.2162 397.39 63.016 397.271 63.0346C397.15 63.0517 396.661 63.8447 396.462 63.8292C396.261 63.8121 395.611 64.124 395.45 64.5601L395.643 64.9993C395.823 65.4105 396.078 65.6744 396.65 65.7194L396.763 65.7287C396.904 65.8451 396.861 66.1523 396.668 66.4084C396.475 66.6645 395.548 67.1595 395.441 67.2697C395.331 67.3814 395.354 67.8222 395.219 67.8485C395.085 67.878 394.968 68.1387 394.923 68.1713C394.878 68.207 394.974 68.4196 395.199 68.5981C395.426 68.7735 395.913 69.5494 395.881 70.0041L395.634 70.2555C394.955 70.9461 395.116 71.3046 396.079 71.722L396.824 72.0464C396.343 72.5166 395.793 73.1373 395.603 73.4229C395.412 73.71 394.829 74.0747 395.359 74.1072L395.289 74.7513L395.26 75.0166C395.315 75.4 395.397 75.9773 395.444 76.3L395.727 76.5173L396.065 76.778C395.954 77.0946 395.735 77.6548 395.577 78.0226L395.913 78.3997L396.747 79.3324C396.042 79.7235 395.444 80.0602 395.415 80.082C395.386 80.1052 395.893 81.0007 396.743 81.9147L397.368 82.8272L397.546 83.0864C397.199 83.0026 396.871 82.9281 396.814 82.9219C396.761 82.9141 396.449 82.9979 396.25 83.1205C396.05 83.2431 395.33 83.5426 395.161 83.5597C394.992 83.5768 394.199 83.6963 393.821 83.8608L393.459 84.0036L393.023 84.1743C392.516 84.1044 391.263 84.2612 390.239 84.5203C389.213 84.7795 385.888 84.9735 385.32 85.1085L384.791 85.1737L384.247 85.2388C383.676 85.3614 382.24 85.4902 381.056 85.5228L379.969 85.5275L379.412 85.5306C378.859 85.7153 378.085 86.1684 377.69 86.5331L377.181 85.9356C377.112 85.8549 376.221 86.125 376.213 86.1032C375.946 85.4685 375.412 86.5688 375.032 85.976L374.9 85.7711C374.326 86.0924 373.638 86.2988 373.372 86.2289L373.316 86.2677L372.785 86.648C372.103 86.589 371.323 86.6464 371.053 86.7768C370.783 86.9071 369.673 86.6309 369.398 86.6759C369.121 86.7193 367.81 86.8963 367.107 86.8932C366.405 86.8916 364.539 87.337 364.354 87.1942C364.17 87.0499 363.022 87.4813 362.494 87.638L362.076 87.548L361.362 87.3897C360.632 87.4937 359.683 87.6117 359.252 87.6536C358.822 87.697 357.836 87.9562 357.756 87.8413C357.675 87.7265 356.927 87.9034 356.52 88.189C356.114 88.473 354.476 88.0586 354.106 88.206L353.976 88.1284L353.39 87.7762C352.905 88.0571 351.968 88.2278 351.312 88.1564L350.786 88.2867L350.247 88.4217C349.742 88.2836 348.829 88.1859 348.218 88.2045L347.655 88.2712L347.125 88.3333C346.561 88.4869 345.718 88.4217 345.253 88.1874L344.632 88.4605L344.185 88.6576C343.518 88.6281 342.252 88.7166 341.372 88.8516L340.486 88.6437L339.897 88.5055C339.104 88.7057 338.25 88.8966 338.002 88.9292C337.753 88.9618 336.916 88.7383 336.678 88.8376C336.44 88.9354 335.612 88.9013 335.059 88.8873C334.507 88.8718 333.083 89.1418 333.03 89.0332C332.976 88.9246 332.824 88.9137 332.807 89.2349C332.789 89.5562 331.671 88.9633 331.443 88.9556C331.213 88.9494 330.199 88.9882 329.722 89.0471C329.244 89.1046 327.952 88.9401 327.61 89.0021C327.266 89.0642 326.014 88.8935 325.567 88.8361C325.118 88.7771 323.518 88.8625 323.04 88.7802C322.562 88.6964 321.295 89.2815 321.079 89.3048C320.862 89.3265 320.192 89.1527 319.931 89.176C319.67 89.1992 318.91 89.1496 318.34 89.1092C317.772 89.0673 316.125 88.9385 315.923 88.9385C315.722 88.937 315.215 89.1108 315.054 88.9059C314.893 88.6995 313.531 88.9323 313.087 88.982C312.645 89.0332 311.044 89.1434 310.43 89.4351L309.675 88.9928L309.124 88.6685C308.215 88.6483 306.833 88.7787 306.052 88.9602L305.26 88.6825L305.141 88.6421C304.794 88.9789 304.168 89.0471 303.751 88.7973C303.333 88.5474 301.281 89.0146 300.377 89.103C299.474 89.1899 297.047 88.6576 296.917 88.6328C296.787 88.608 295.9 88.7523 295.067 88.8594L294.281 88.6219L293.821 88.4823C293.554 88.9463 293.042 89.1791 292.687 89.0037C292.33 88.8268 291.345 88.5738 291.12 88.7492C290.897 88.9261 290.023 89.3389 289.838 89.1527C289.652 88.9649 288.699 88.6933 287.93 88.7601L287.405 88.9665C286.806 89.1977 286.266 89.1465 285.806 88.923L285.286 88.67C284.881 88.8873 284.356 88.9959 284.122 88.9168C283.887 88.8361 283.044 88.6561 282.804 88.6142C282.565 88.5738 281.757 88.7554 281.477 88.9183C281.197 89.0828 280.271 88.9168 280.023 88.9851C279.774 89.0534 278.775 88.9649 278.466 88.9571C278.159 88.9494 277.321 88.7973 277.297 88.6235C277.271 88.4481 277.099 87.9624 276.982 88.0245C276.864 88.0881 276.536 88.1052 276.459 87.95C276.383 87.7979 275.873 87.6831 275.616 87.7824L275.476 88.0664C275.362 88.2976 274.812 88.3861 274.484 88.5692C273.546 89.0922 273.522 89.0953 272.531 88.4745L272.375 88.3783C272.155 88.2759 271.806 88.3116 271.6 88.4574C271.392 88.6002 270.517 88.8811 270.229 88.6747C269.941 88.4699 269.09 88.0322 269.05 88.2138C269.008 88.3954 268.548 88.9168 268.117 88.9587C267.688 88.999 265.475 88.8159 264.033 89.0813L262.634 88.653L262.2 88.5211C261.463 88.8966 260.743 89.0472 260.599 88.8563C260.458 88.6638 259.789 89.0254 259.712 89.0875C259.636 89.148 258.978 89.1697 258.312 89.1604C257.648 89.1511 255.75 88.8609 255.499 88.8082C255.246 88.7554 254.31 89.0704 254.005 89.2349C253.701 89.3963 252.179 89.3389 251.547 89.7393L250.807 89.1837L250.366 88.8532C249.845 88.9913 249.168 88.982 248.859 88.833C248.55 88.684 247.638 89.3017 247.309 89.3451C246.98 89.3901 245.994 89.1108 245.961 88.9447C245.927 88.7787 245.462 88.4419 245.041 88.7585L244.733 89.0316L244.378 89.3451C243.974 89.2085 243.49 89.1651 243.302 89.2489C243.112 89.3342 242.507 89.4615 242.474 89.2815C242.44 89.103 242.261 89.0409 242.145 89.5251L241.425 89.2629L241.048 89.1263C240.732 89.2085 240.286 89.3032 240.056 89.3373C239.828 89.3699 238.975 89.0658 238.7 89.1201C238.425 89.176 237.458 89.1108 237.159 88.9463C236.86 88.7818 235.794 88.8733 235.321 88.757L234.906 88.684C234.729 88.653 234.351 88.8889 234.319 88.8532C233.963 88.4807 233.794 88.8035 233.51 88.9106C233.378 88.9587 233.077 88.698 232.831 88.6142C232.787 88.6002 232.567 88.7725 232.564 88.8578L232.562 88.937C232.721 89.027 232.8 89.1418 232.739 89.193C232.678 89.2458 232.377 89.2132 232.165 89.1403C231.954 89.0673 231.068 89.1232 230.663 89.266L230.296 89.2644C229.723 89.2629 228.93 88.9168 228.628 89.1092L228.039 89.4755C227.563 89.2567 226.966 89.0999 226.711 89.1247C226.453 89.1496 225.615 89.4227 225.388 89.5717C225.163 89.7222 224.956 89.0549 224.919 89.0223C224.88 88.9882 224.349 89.0146 223.745 89.072C223.138 89.1294 221.185 89.3079 220.745 89.3451C220.304 89.3808 219.07 88.4093 218.909 88.5505C218.749 88.6902 218.364 89.373 217.69 89.4429C217.015 89.5143 214.441 88.7973 213.349 88.5288L212.394 89.2536L212.131 89.4522C211.472 89.3405 210.792 89.1775 210.618 89.0937C210.446 89.0068 209.74 89.1496 209.45 89.0208C209.159 88.8904 208.197 89.2365 208.047 89.2551C207.896 89.2768 207.049 89.2287 206.507 89.1666C205.963 89.1046 203.75 89.2706 202.767 89.4522L201.94 88.9432C201.919 88.9308 199.936 89.3389 199.91 89.3591C199.807 89.4367 199.719 89.5686 199.6 89.5903L199.096 89.6819C198.632 89.4739 198.287 89.1604 198.329 88.9835C198.371 88.8066 198.228 88.3007 198.036 88.3007C197.845 88.3007 197.44 88.4373 197.586 88.6033L197.604 88.7818L197.628 89.0068C197.618 89.3467 197.202 89.5453 196.703 89.446L196.269 89.4413L195.921 89.4367C195.554 89.5298 194.831 89.6322 194.314 89.6695C193.798 89.7051 192.278 89.4367 191.972 89.5515C191.667 89.6663 190.652 89.4149 190.362 89.55C190.074 89.685 189.105 89.4522 188.947 89.522L188.786 89.5422C188.03 89.6353 187.345 89.6182 186.557 89.4041L185.87 89.2163C184.902 89.2349 183.863 89.2411 183.56 89.2365C183.259 89.2303 182.954 88.6297 182.577 89.027L182.378 89.2489L182.269 89.3699C182.162 89.5112 181.648 89.7129 181.127 89.8215C180.605 89.9286 179.044 89.401 178.783 89.3544C178.521 89.3063 177.995 89.356 177.818 89.2799C177.643 89.2054 176.911 89.2923 176.686 89.3187C176.462 89.3467 175.476 89.3963 174.987 89.3467C174.5 89.2986 173.223 89.0006 173.2 88.9215C173.176 88.8423 172.899 89.0146 172.626 89.4708L171.791 89.0751C171.561 88.9665 170.937 89.4956 170.461 89.5484L170.047 89.595C169.557 89.418 168.785 89.5996 168.33 90L167.635 89.5236L167.239 89.252C166.588 89.0223 165.957 88.9633 165.836 89.1216C165.716 89.2815 165.151 89.6772 164.979 89.4801C164.807 89.2846 164.154 89.0891 163.832 89.3886L163.531 89.5251C163.359 89.6027 162.838 89.5034 162.833 89.4646L162.761 88.7011C161.923 88.4854 161.194 88.5055 161.141 88.7445C161.09 88.9835 160.619 89.4227 160.173 89.3482L159.814 89.4336C159.536 89.4987 159.348 89.7129 159.314 89.3234C159.279 88.9106 158.894 88.8128 158.618 89.0006C157.842 89.5313 156.961 89.1729 156.145 89.2815L155.579 89.3575C154.952 89.4382 154.35 89.5081 154.241 89.5127L154.141 89.4987L153.464 89.3979C152.538 89.2551 152.029 89.0596 152.333 88.9649C152.637 88.8687 152.016 88.3674 151.962 88.206C151.907 88.0446 151.537 87.8801 151.513 88.2262C151.489 88.5754 151.175 89.4227 150.871 89.2923L150.669 89.1434L150.427 88.9665C150.189 88.6173 149.647 88.5055 149.223 88.7166C148.796 88.9277 147.619 89.0937 147.466 88.8299C147.313 88.5661 146.61 88.0927 146.281 88.4388L146.277 88.7166L146.268 89.5391C145.718 89.5701 144.823 89.4987 144.283 89.3777C143.742 89.2582 142.176 89.4491 142.066 89.4103C141.957 89.3699 141.418 89.2179 141.134 89.131C140.847 89.0471 139.591 89.1185 138.981 89.3048L138.586 89.1791L138.198 89.0549C137.952 88.5785 137.473 88.3054 137.135 88.4528C136.795 88.5971 136.036 89.0766 136.072 89.2039L136.059 89.3218L136.048 89.4258C135.974 89.536 135.819 89.6074 135.707 89.5825C135.592 89.5608 135.169 89.2536 134.931 89.0285C134.695 88.8004 133.691 89.2799 133.535 89.2939C133.381 89.3063 132.708 89.2085 132.383 89.131L132.348 89.0084L132.229 88.6002C132.659 88.6002 133.32 88.5692 133.698 88.5288C134.076 88.49 134.246 87.6582 133.878 87.5993C133.509 87.5418 132.419 87.5915 132.414 87.8631L132.256 88.1129C132.065 88.4202 131.738 88.8858 131.439 88.9013C130.613 88.9416 131.264 88.265 130.918 88.0136L130.868 87.9779C130.788 87.936 130.452 88.1998 130.12 88.5661C129.787 88.9308 128.042 88.9199 127.499 88.9494C126.955 88.9804 126.361 88.099 126.197 88.428C126.033 88.7585 127.204 89.0006 127.275 89.0518C127.346 89.1061 127.381 89.401 127.198 89.5825L127.005 89.6058L126.76 89.6338C126.472 89.5313 125.855 89.1418 125.39 88.7678L125.276 87.4456C125.26 87.2687 124.689 86.949 124.661 86.9676C123.262 87.8739 123.732 86.783 123.58 86.3593L123.564 86.3112C123.415 86.2103 123.268 86.3857 123.236 86.6992C123.204 87.0111 122.869 87.5853 122.556 87.3339C122.244 87.084 121.763 88.2091 121.657 88.4249C121.552 88.6406 121.063 89.3063 120.87 89.3358C120.677 89.3653 119.599 89.3048 118.784 89.3513L118.05 89.3855L117.894 89.3917C117.725 89.4568 117.584 89.4103 117.579 89.2892C117.576 89.1697 117.602 88.8795 117.59 88.6545C117.581 88.428 118.163 87.9469 118.493 87.9841L118.755 88.0369L118.996 88.085C119.213 88.2464 119.694 88.4543 120.066 88.5459L120.428 88.5893C120.601 88.608 120.918 88.5304 120.967 88.4342L121.166 88.0477C121.335 87.6086 121.756 87.2423 122.104 87.2361L122.215 87.1042C122.464 86.8047 122.462 86.3391 122.768 86.1141L123.347 85.6842C123.014 85.318 122.572 84.9874 122.363 84.9502C122.154 84.9114 121.507 85.169 121.507 85.6253C121.507 86.0815 121.084 87.2609 120.608 87.2749L120.323 87.5899C119.969 87.9779 119.628 88.0198 119.099 87.6691L118.831 87.4922Z" fill="white"/>
</svg>
